<svg xmlns="http://www.w3.org/2000/svg" viewBox="0 0 17 16" width="17" height="16"><path d="M10.79 9.506c-.74 0-1.482-.33-2.01-.88-.848-.88-1.802-2.753.846-5.505C11.744.92 16.193.15 16.406.04c.21 0 .316 0 .422.11.106.11.212.33.106.44 0 .22-.847 4.843-2.965 7.044-1.06 1.21-2.12 1.872-3.18 1.872zm5.085-8.256c-1.377.33-4.025 1.1-5.507 2.532-1.59 1.65-1.8 2.972-.848 3.963 1.06 1.1 2.33.77 3.813-.88 1.377-1.432 2.224-4.294 2.542-5.615z"/><path d="M8.143 15.45h-1.06c0-2.312.743-4.733 2.12-7.265l.953.55c-1.377 2.312-2.013 4.623-2.013 6.715zM5.072 8.185c-.74 0-1.483-.33-2.33-.99C1.047 5.762.2 2.57.094 2.46c0-.22 0-.33.106-.55.106-.11.212-.22.424-.22.106 0 3.39.22 5.084 1.542.953.77 1.482 1.54 1.588 2.31.106.55-.106 1.102-.53 1.652-.423.66-1.058.99-1.694.99zM1.365 2.9c.318.992 1.06 2.533 2.012 3.414 1.06.88 1.907 1.1 2.542.33.21-.33.317-.55.21-.88-.105-.44-.422-.99-1.164-1.652-.847-.77-2.542-1.1-3.6-1.21z"/><path d="M8.673 12.147h-1.06c0-1.65-.53-3.302-1.8-4.843l.848-.66c1.272 1.76 2.013 3.632 2.013 5.503z"/><g><path d="M9.732 16h-4.13c-.318 0-.53-.22-.53-.55 0-.33.212-.55.53-.55h4.13c.318 0 .53.22.53.55 0 .33-.212.55-.53.55z"/></g><path d="M5.37 15.92c-.378-.188-.34-.814.06-.966.064-.024.476-.044.915-.044h.798v-.248c0-.372.164-1.413.327-2.073.08-.328.144-.713.144-.872 0-.43-.17-1.332-.35-1.875-.22-.652-.716-1.625-1.044-2.04-.007-.01-.105.038-.217.104-.826.484-1.883.27-3.088-.624-.9-.667-1.767-2.067-2.506-4.05-.303-.81-.328-.95-.22-1.207.113-.272.25-.326.718-.288 1.67.135 3.496.67 4.51 1.317.388.248 1.126.98 1.394 1.38.35.525.44.798.445 1.36.003.458-.003.485-.18.844-.16.326-.176.382-.12.468.582.926.95 1.653 1.224 2.427l.16.445.288-.61.29-.61-.25-.302c-.863-1.045-.98-2.23-.342-3.506.514-1.03 1.417-2.04 2.434-2.72.9-.603 2.355-1.246 3.756-1.66.815-.242 1.88-.503 2.05-.503.16 0 .376.19.376.33 0 .315-.425 2.06-.716 2.943-.624 1.89-1.336 3.222-2.296 4.296-1.028 1.15-2.003 1.752-2.978 1.834-.274.023-.434.008-.745-.07-.217-.055-.4-.095-.405-.09-.006.007-.13.255-.28.55-.502 1.007-.914 2.177-1.15 3.27-.084.384-.24 1.506-.24 1.716 0 .046.196.06.836.06.702 0 .863.013 1 .082.36.18.36.738 0 .92-.15.074-.36.08-2.307.08-1.832 0-2.164-.01-2.29-.073zm5.97-7.588c1.038-.31 2.28-1.516 3.073-2.987.46-.853 1.02-2.34 1.347-3.573l.142-.535-.166.03c-.37.07-1.54.424-2.14.647-1.873.7-3.072 1.504-3.9 2.622C8.75 5.812 8.69 6.92 9.52 7.764c.56.57 1.172.76 1.82.568zM5.52 7.004c.32-.164.605-.547.66-.884.058-.368-.26-1.047-.728-1.552-.62-.67-1.103-.973-2.008-1.263-.707-.227-2.097-.485-2.097-.39 0 .087.35.915.58 1.374.556 1.11 1.223 1.944 1.918 2.4.662.437 1.23.543 1.675.314z" fill="#DBDBDB" paint-order="fill markers stroke"/></svg>