<svg xmlns="http://www.w3.org/2000/svg" viewBox="0 0 512 512" width="17" height="17"><path d="M511.997 135.944v-30.94c0-24.814-20.19-45-45.002-45H244.54c-5.72 0-10.86-3.177-13.418-8.292L217.707 24.88C210.037 9.536 194.613.004 177.46.004H45C20.19.004.004 20.19 0 45.004V377.73c0 24.45 19.643 44.17 44.13 44.168h106.872v45.098c0 24.813 20.187 45 45 45H316c24.813 0 45-20.188 45-45v-45H467c24.812 0 44.996-20.187 44.996-44.998V136.06c0-.02.003-.04.003-.058 0-.02-.003-.04-.003-.058zM331 466.997c0 8.27-6.73 15-15 15H196.002c-8.27 0-15-6.73-15-15v-90c0-8.27 6.73-15 15-15H316c8.27 0 15 6.73 15 15v90zM211.002 332v-46c0-24.813 20.187-45 45-45C280.813 241 301 261.188 301 286v46h-89.998zm270.995 44.998c0 7.807-6.065 15-15.605 15H361v-15c0-19.555-12.542-36.227-30-42.42V286c0-41.354-33.645-75-75-75-41.354 0-75 33.645-75 75v48.58c-17.458 6.19-30 22.864-30 42.418v15H44.13C36.28 392 30 385.655 30 377.732V151.003h451.997v225.996zm0-255.996H30V45.004c.002-8.272 6.73-15 15.002-15H177.46c5.717 0 10.857 3.176 13.415 8.29l13.417 26.834c7.672 15.343 23.095 24.875 40.248 24.875h222.456c8.27 0 15.003 6.73 15.003 15v16z" fill="#DBDBDB"/><path d="M256 391.998c-8.283 0-15 6.716-15 15v30c0 8.284 6.717 15 15 15 8.285 0 15-6.716 15-15v-30c0-8.284-6.715-15-15-15zM436.998 181h-61c-8.283 0-15 6.717-15 15s6.717 15 15 15h61c8.284 0 15-6.715 15-15s-6.716-15-15-15zM436.998 241h-61c-8.283 0-15 6.716-15 15s6.717 15 15 15h61c8.284 0 15-6.716 15-15s-6.716-15-15-15z" fill="#DBDBDB"/></svg>