<svg xmlns="http://www.w3.org/2000/svg" viewBox="0 0 49.94 49.94" width="17" height="17"><g fill="#dbdbdb"><path d="M43.92 17.993h-.617C43.013 8.13 34.9.196 24.97.196 15.04.196 6.927 8.13 6.637 17.993H6.02c-3.32 0-6.02 2.7-6.02 6.02v19.712c0 3.32 2.7 6.02 6.02 6.02h37.9c3.32 0 6.02-2.7 6.02-6.02V24.012c0-3.32-2.7-6.02-6.02-6.02zM24.97 3.215c8.266 0 15.023 6.58 15.31 14.778h-3.76c-.284-6.125-5.356-11.02-11.55-11.02-6.194 0-11.266 4.895-11.55 11.02H9.657c.29-8.198 7.046-14.778 15.312-14.778zm8.526 14.778H16.444c.282-4.46 3.997-8 8.526-8 4.53 0 8.244 3.54 8.526 8zM46.92 43.725c0 1.654-1.345 3-3 3H6.02c-1.655 0-3-1.346-3-3V24.012c0-1.655 1.345-3 3-3h37.9c1.655 0 3 1.345 3 3v19.713z"/><path d="M24.97 25.09c-3.472 0-6.296 2.824-6.296 6.296 0 1.81.776 3.515 2.11 4.702v4.765c0 .833.674 1.51 1.508 1.51h5.356c.833 0 1.51-.677 1.51-1.51v-4.765c1.332-1.187 2.108-2.89 2.108-4.702 0-3.472-2.824-6.296-6.296-6.296zm1.832 9.013c-.415.28-.664.75-.664 1.25v3.99h-2.336v-3.99c0-.5-.25-.97-.664-1.25-.905-.61-1.445-1.627-1.445-2.717 0-1.807 1.47-3.277 3.277-3.277 1.807 0 3.277 1.47 3.277 3.276 0 1.09-.54 2.106-1.445 2.717z"/></g></svg>