<svg xmlns="http://www.w3.org/2000/svg" viewBox="0 0 16 15" width="16" height="15"><path d="M8.01 9.487c-.283 0-.472-.193-.472-.483V5.522c0-.29.19-.484.473-.484.284 0 .473.194.473.484v3.482c0 .29-.19.483-.472.483zM8.01 12.002c-.094 0-.283 0-.377-.097-.095-.097-.095-.193-.095-.387 0-.096 0-.29.095-.387.19-.192.472-.192.66 0 .096.098.096.195.096.388 0 .097-.096.29-.19.387.094.097-.095.097-.19.097z" fill="#DBDBDB"/><g><path d="M13.587 15H2.434c-.85 0-1.7-.484-2.08-1.257-.472-.774-.472-1.74 0-2.515l5.577-9.96C6.405.492 7.16.007 8.01.007c.85 0 1.702.485 2.08 1.26l5.577 9.96c.472.774.472 1.74 0 2.515-.378.773-1.135 1.257-2.08 1.257zM8.01 1.073c-.567 0-1.04.29-1.228.774l-5.577 9.96c-.283.485-.283 1.065 0 1.55.284.482.756.773 1.23.773H13.68c.567 0 1.04-.29 1.23-.774.282-.484.282-1.064 0-1.548l-5.578-9.96c-.284-.485-.756-.775-1.323-.775z" fill="#DBDBDB"/></g></svg>