<?xml version="1.0" encoding="UTF-8" standalone="no"?>
<svg
   xmlns:osb="http://www.openswatchbook.org/uri/2009/osb"
   xmlns:dc="http://purl.org/dc/elements/1.1/"
   xmlns:cc="http://creativecommons.org/ns#"
   xmlns:rdf="http://www.w3.org/1999/02/22-rdf-syntax-ns#"
   xmlns:svg="http://www.w3.org/2000/svg"
   xmlns="http://www.w3.org/2000/svg"
   xmlns:sodipodi="http://sodipodi.sourceforge.net/DTD/sodipodi-0.dtd"
   xmlns:inkscape="http://www.inkscape.org/namespaces/inkscape"
   id="svg8"
   viewBox="0 0 150 150.00001"
   version="1.1"
   sodipodi:docname="default.svg"
   width="150"
   height="150"
   inkscape:version="0.92.2 (5c3e80d, 2017-08-06)">
  <metadata
     id="metadata89">
    <rdf:RDF>
      <cc:Work
         rdf:about="">
        <dc:format>image/svg+xml</dc:format>
        <dc:type
           rdf:resource="http://purl.org/dc/dcmitype/StillImage" />
        <dc:title></dc:title>
      </cc:Work>
    </rdf:RDF>
  </metadata>
  <sodipodi:namedview
     pagecolor="#ffffff"
     bordercolor="#666666"
     borderopacity="1"
     objecttolerance="10"
     gridtolerance="10"
     guidetolerance="10"
     inkscape:pageopacity="0"
     inkscape:pageshadow="2"
     inkscape:window-width="1920"
     inkscape:window-height="1017"
     id="namedview87"
     showgrid="false"
     fit-margin-top="0"
     fit-margin-left="0"
     fit-margin-right="0"
     fit-margin-bottom="0"
     inkscape:zoom="8.9710181"
     inkscape:cx="61.501448"
     inkscape:cy="67.66542"
     inkscape:window-x="-8"
     inkscape:window-y="-8"
     inkscape:window-maximized="1"
     inkscape:current-layer="svg8" />
  <defs
     id="defs2">
    <linearGradient
       id="linearGradient900"
       osb:paint="solid">
      <stop
         style="stop-color:#ffffff;stop-opacity:1;"
         offset="0"
         id="stop898" />
    </linearGradient>
    <filter
       id="filter7416"
       style="color-interpolation-filters:sRGB">
      <feFlood
         id="feFlood7406"
         result="flood"
         flood-color="#000"
         flood-opacity=".667" />
      <feComposite
         id="feComposite7408"
         result="composite1"
         operator="out"
         in2="SourceGraphic"
         in="flood" />
      <feGaussianBlur
         id="feGaussianBlur7410"
         result="blur"
         stdDeviation=".6"
         in="composite1" />
      <feOffset
         id="feOffset7412"
         result="offset"
         dy="1.2"
         dx="-1.6" />
      <feComposite
         id="feComposite7414"
         result="composite2"
         operator="atop"
         in2="SourceGraphic"
         in="offset" />
    </filter>
    <filter
       id="filter7428"
       style="color-interpolation-filters:sRGB">
      <feFlood
         id="feFlood7418"
         result="flood"
         flood-color="#000"
         flood-opacity=".667" />
      <feComposite
         id="feComposite7420"
         result="composite1"
         operator="out"
         in2="SourceGraphic"
         in="flood" />
      <feGaussianBlur
         id="feGaussianBlur7422"
         result="blur"
         stdDeviation=".6"
         in="composite1" />
      <feOffset
         id="feOffset7424"
         result="offset"
         dy="1.2"
         dx="-1.6" />
      <feComposite
         id="feComposite7426"
         result="composite2"
         operator="atop"
         in2="SourceGraphic"
         in="offset" />
    </filter>
    <filter
       id="filter7440"
       style="color-interpolation-filters:sRGB">
      <feFlood
         id="feFlood7430"
         result="flood"
         flood-color="#000"
         flood-opacity=".667" />
      <feComposite
         id="feComposite7432"
         result="composite1"
         operator="out"
         in2="SourceGraphic"
         in="flood" />
      <feGaussianBlur
         id="feGaussianBlur7434"
         result="blur"
         stdDeviation=".6"
         in="composite1" />
      <feOffset
         id="feOffset7436"
         result="offset"
         dy="1.2"
         dx="-1.6" />
      <feComposite
         id="feComposite7438"
         result="composite2"
         operator="atop"
         in2="SourceGraphic"
         in="offset" />
    </filter>
    <filter
       id="filter7452"
       style="color-interpolation-filters:sRGB">
      <feFlood
         id="feFlood7442"
         result="flood"
         flood-color="#000"
         flood-opacity=".667" />
      <feComposite
         id="feComposite7444"
         result="composite1"
         operator="out"
         in2="SourceGraphic"
         in="flood" />
      <feGaussianBlur
         id="feGaussianBlur7446"
         result="blur"
         stdDeviation=".6"
         in="composite1" />
      <feOffset
         id="feOffset7448"
         result="offset"
         dy="1.2"
         dx="-1.6" />
      <feComposite
         id="feComposite7450"
         result="composite2"
         operator="atop"
         in2="SourceGraphic"
         in="offset" />
    </filter>
    <filter
       id="filter7464"
       style="color-interpolation-filters:sRGB">
      <feFlood
         id="feFlood7454"
         result="flood"
         flood-color="#000"
         flood-opacity=".667" />
      <feComposite
         id="feComposite7456"
         result="composite1"
         operator="out"
         in2="SourceGraphic"
         in="flood" />
      <feGaussianBlur
         id="feGaussianBlur7458"
         result="blur"
         stdDeviation=".6"
         in="composite1" />
      <feOffset
         id="feOffset7460"
         result="offset"
         dy="1.2"
         dx="-1.6" />
      <feComposite
         id="feComposite7462"
         result="composite2"
         operator="atop"
         in2="SourceGraphic"
         in="offset" />
    </filter>
    <filter
       id="filter7476"
       style="color-interpolation-filters:sRGB">
      <feFlood
         id="feFlood7466"
         result="flood"
         flood-color="#000"
         flood-opacity=".667" />
      <feComposite
         id="feComposite7468"
         result="composite1"
         operator="out"
         in2="SourceGraphic"
         in="flood" />
      <feGaussianBlur
         id="feGaussianBlur7470"
         result="blur"
         stdDeviation=".6"
         in="composite1" />
      <feOffset
         id="feOffset7472"
         result="offset"
         dy="1.2"
         dx="-1.6" />
      <feComposite
         id="feComposite7474"
         result="composite2"
         operator="atop"
         in2="SourceGraphic"
         in="offset" />
    </filter>
    <filter
       id="filter7488"
       style="color-interpolation-filters:sRGB">
      <feFlood
         id="feFlood7478"
         result="flood"
         flood-color="#000"
         flood-opacity=".667" />
      <feComposite
         id="feComposite7480"
         result="composite1"
         operator="out"
         in2="SourceGraphic"
         in="flood" />
      <feGaussianBlur
         id="feGaussianBlur7482"
         result="blur"
         stdDeviation=".6"
         in="composite1" />
      <feOffset
         id="feOffset7484"
         result="offset"
         dy="1.2"
         dx="-1.6" />
      <feComposite
         id="feComposite7486"
         result="composite2"
         operator="atop"
         in2="SourceGraphic"
         in="offset" />
    </filter>
    <clipPath
       clipPathUnits="userSpaceOnUse"
       id="clipPath904">
      <rect
         style="fill:#ff0000;fill-opacity:1;stroke-width:0.19662803;stroke-linecap:square;stroke-linejoin:round;stroke-miterlimit:4;stroke-dasharray:none;paint-order:normal"
         id="rect906"
         width="24.634886"
         height="23.854595"
         x="103.22128"
         y="-0.69336009" />
    </clipPath>
  </defs>
  <g
     id="layer1"
     transform="matrix(4.0949962,0,0,4.0949962,-397.69076,29.225304)"
     clip-path="url(#clipPath904)">
    <g
       id="g30"
       style="fill:#cdcdcd">
      <path
         id="path12"
         d="m 2.275,7.738 c 0.16,0 0.344,0 0.503,0.027 C 2.91,7.791 3.016,7.818 3.148,7.87 3.254,7.923 3.36,8.003 3.44,8.11 3.545,8.24 3.65,8.347 3.757,8.48 l 4.71,6.217 c 0.026,0.053 0.105,0.106 0.158,0.08 h 0.106 c 0.06,0 0.11,-0.054 0.11,-0.107 V 8.03 C 8.821,7.897 8.921,7.765 9.051,7.738 h 1.4 c 0.14,-0.026 0.27,0.08 0.3,0.212 v 7.382 c 0,0.53 -0.1,0.873 -0.29,1.058 -0.24,0.185 -0.55,0.29 -0.87,0.265 H 8.5 c -0.16,0 -0.317,0 -0.476,-0.027 C 7.918,16.602 7.784,16.575 7.68,16.522 7.573,16.469 7.467,16.39 7.39,16.312 7.256,16.178 7.15,16.046 7.044,15.914 L 2.3,9.67 C 2.247,9.617 2.194,9.59 2.14,9.59 H 2.01 c -0.054,0 -0.107,0.053 -0.107,0.106 v 6.667 c 0.026,0.133 -0.08,0.265 -0.212,0.292 H 0.29 C 0.16,16.655 0.026,16.575 0,16.417 V 9.06 C 0,8.532 0.106,8.188 0.29,8.003 0.53,7.818 0.847,7.713 1.164,7.738 Z"
         class="st0"
         inkscape:connector-curvature="0" />
      <path
         id="path14"
         d="m 18.89,9.67 c 0.372,0 0.716,0.026 1.086,0.105 0.265,0.053 0.503,0.186 0.688,0.37 0.185,0.186 0.29,0.398 0.344,0.662 0.08,0.318 0.106,0.635 0.106,0.98 v 1.216 c 0.026,0.212 -0.053,0.424 -0.185,0.556 -0.16,0.1 -0.35,0.18 -0.56,0.15 h -6.43 v 0.31 c -0.03,0.32 0.08,0.63 0.29,0.87 0.18,0.18 0.55,0.26 1.11,0.26 h 5.29 c 0.1,-0.03 0.21,0.05 0.24,0.18 v 1.11 c 0.02,0.1 -0.06,0.21 -0.16,0.23 h -5.55 c -0.48,0 -0.98,-0.03 -1.46,-0.14 -0.35,-0.08 -0.66,-0.21 -0.93,-0.45 -0.24,-0.21 -0.43,-0.474 -0.51,-0.79 -0.11,-0.37 -0.16,-0.77 -0.16,-1.19 v -1.85 c 0,-0.4 0.05,-0.797 0.16,-1.194 0.08,-0.32 0.26,-0.58 0.5,-0.795 0.26,-0.215 0.58,-0.37 0.92,-0.45 0.47,-0.11 0.95,-0.16 1.45,-0.135 z m -4.946,2.884 h 5.16 c 0.105,0.026 0.21,-0.053 0.237,-0.16 v -0.608 c 0.03,-0.21 -0.05,-0.397 -0.15,-0.555 -0.18,-0.13 -0.39,-0.18 -0.63,-0.15 h -3.2 c -0.55,0 -0.92,0.08 -1.11,0.27 -0.21,0.24 -0.31,0.56 -0.29,0.88 z"
         class="st0"
         inkscape:connector-curvature="0" />
      <path
         id="path16"
         d="m 23.945,7.103 c 0.132,-0.026 0.264,0.08 0.29,0.212 V 9.67 H 29 c 0.477,0 0.953,0.026 1.43,0.132 0.343,0.08 0.66,0.238 0.925,0.45 0.238,0.21 0.423,0.476 0.503,0.793 0.106,0.37 0.16,0.768 0.16,1.19 v 1.827 c 0,0.397 -0.054,0.793 -0.16,1.19 -0.08,0.318 -0.265,0.582 -0.503,0.794 -0.264,0.238 -0.582,0.37 -0.926,0.45 -0.48,0.106 -0.96,0.16 -1.43,0.132 h -3.55 c -0.48,0 -0.98,-0.026 -1.46,-0.132 -0.35,-0.08 -0.67,-0.238 -0.93,-0.45 -0.24,-0.212 -0.43,-0.476 -0.5,-0.794 -0.11,-0.37 -0.16,-0.767 -0.16,-1.19 V 7.394 c 0,-0.132 0.1,-0.264 0.24,-0.29 h 1.29 z m 0.29,4.075 v 2.54 c 0,0.238 0.027,0.45 0.054,0.66 0.02,0.16 0.1,0.32 0.21,0.45 0.1,0.107 0.26,0.186 0.42,0.24 0.21,0.052 0.45,0.08 0.69,0.08 h 3.2 c 0.24,0 0.45,-0.028 0.69,-0.08 0.16,-0.027 0.31,-0.107 0.42,-0.24 0.1,-0.105 0.18,-0.264 0.21,-0.422 0.05,-0.212 0.08,-0.45 0.05,-0.662 v -1.137 c 0,-0.212 -0.03,-0.45 -0.06,-0.662 -0.03,-0.16 -0.11,-0.317 -0.21,-0.423 -0.11,-0.106 -0.27,-0.185 -0.43,-0.238 -0.24,-0.053 -0.45,-0.08 -0.69,-0.08 0.03,-0.026 -4.58,-0.026 -4.58,-0.026 z"
         class="st0"
         inkscape:connector-curvature="0" />
      <path
         id="path18"
         d="m 35.03,9.67 c 0.16,0 0.265,0.105 0.292,0.238 v 3.73 c 0,0.24 0,0.45 0.053,0.663 0.026,0.16 0.08,0.29 0.185,0.43 0.106,0.11 0.238,0.19 0.397,0.24 0.212,0.06 0.45,0.08 0.688,0.08 h 3.28 c 0.24,0 0.45,-0.02 0.69,-0.08 0.157,-0.02 0.316,-0.1 0.422,-0.23 0.106,-0.1 0.185,-0.26 0.212,-0.42 0.05,-0.21 0.07,-0.45 0.05,-0.66 v -3.7 c -0.03,-0.13 0.08,-0.26 0.24,-0.29 h 1.29 c 0.16,0 0.26,0.11 0.29,0.24 v 4.18 c 0,0.4 -0.05,0.8 -0.16,1.19 -0.08,0.32 -0.27,0.59 -0.5,0.8 -0.27,0.24 -0.58,0.37 -0.93,0.45 -0.48,0.11 -0.96,0.16 -1.43,0.13 h -3.6 c -0.48,0 -0.98,-0.02 -1.46,-0.13 -0.35,-0.08 -0.66,-0.24 -0.93,-0.45 -0.24,-0.21 -0.42,-0.47 -0.5,-0.79 -0.11,-0.37 -0.16,-0.76 -0.16,-1.19 V 9.96 c -0.03,-0.132 0.08,-0.264 0.24,-0.29 z"
         class="st0"
         inkscape:connector-curvature="0" />
      <path
         id="path20"
         d="m 46.223,7.103 c 0.132,-0.026 0.264,0.08 0.29,0.212 v 9.075 c 0.027,0.132 -0.08,0.265 -0.21,0.29 H 44.98 c -0.134,0.028 -0.266,-0.078 -0.293,-0.21 V 7.393 c -0.026,-0.132 0.08,-0.264 0.212,-0.29 h 0.08 z"
         class="st0"
         inkscape:connector-curvature="0" />
      <path
         id="path22"
         d="m 53.763,9.67 c 0.477,0 0.953,0.053 1.43,0.132 0.343,0.08 0.66,0.238 0.925,0.45 0.238,0.21 0.423,0.476 0.503,0.793 0.11,0.37 0.16,0.768 0.16,1.19 v 3.388 c 0,0.16 0,0.344 -0.05,0.502 -0.02,0.106 -0.08,0.212 -0.16,0.318 -0.08,0.08 -0.18,0.132 -0.29,0.16 -0.16,0.025 -0.29,0.052 -0.45,0.052 h -6.06 c -0.31,0 -0.63,-0.027 -0.92,-0.106 -0.21,-0.06 -0.42,-0.16 -0.61,-0.32 -0.16,-0.16 -0.26,-0.35 -0.32,-0.56 -0.08,-0.27 -0.1,-0.53 -0.1,-0.82 v -0.61 c 0,-0.24 0.03,-0.48 0.11,-0.72 0.06,-0.21 0.19,-0.4 0.32,-0.53 0.19,-0.16 0.37,-0.27 0.61,-0.32 0.32,-0.08 0.61,-0.11 0.93,-0.11 h 5.19 v -0.24 c 0,-0.19 -0.02,-0.35 -0.05,-0.53 -0.02,-0.13 -0.1,-0.27 -0.21,-0.34 -0.13,-0.11 -0.26,-0.16 -0.42,-0.22 -0.24,-0.06 -0.45,-0.08 -0.69,-0.06 h -5.32 c -0.1,0.02 -0.21,-0.06 -0.23,-0.16 v -1.1 c -0.02,-0.11 0.06,-0.21 0.19,-0.24 h 5.55 z m 0.847,5.582 c 0.106,0 0.212,-0.026 0.29,-0.105 0.054,-0.106 0.107,-0.212 0.08,-0.344 v -1.138 h -4.656 c -0.185,-0.027 -0.397,0.026 -0.556,0.16 -0.106,0.13 -0.16,0.29 -0.16,0.475 v 0.264 c -0.025,0.186 0.054,0.37 0.16,0.503 0.16,0.132 0.344,0.185 0.556,0.16 z"
         class="st0"
         inkscape:connector-curvature="0" />
      <path
         id="path24"
         d="m 64.796,9.67 c 0.477,0 0.953,0.053 1.43,0.132 0.343,0.08 0.66,0.238 0.925,0.45 0.24,0.21 0.43,0.476 0.51,0.793 0.11,0.37 0.16,0.768 0.16,1.19 v 4.13 c 0.03,0.13 -0.08,0.263 -0.21,0.29 h -1.3 c -0.13,0.026 -0.26,-0.08 -0.29,-0.212 v -3.757 c 0,-0.212 -0.03,-0.45 -0.05,-0.662 -0.02,-0.158 -0.08,-0.317 -0.21,-0.423 -0.1,-0.1 -0.24,-0.18 -0.4,-0.23 -0.21,-0.05 -0.45,-0.08 -0.66,-0.08 h -3.39 c -0.24,0 -0.45,0.03 -0.69,0.08 -0.16,0.03 -0.31,0.11 -0.42,0.24 -0.1,0.14 -0.18,0.27 -0.21,0.43 -0.05,0.21 -0.08,0.45 -0.05,0.66 v 3.68 c 0.03,0.13 -0.08,0.27 -0.21,0.29 H 58.4 c -0.134,0.03 -0.266,-0.08 -0.293,-0.24 v -4.18 c 0,-0.39 0.053,-0.79 0.16,-1.19 0.08,-0.32 0.264,-0.58 0.502,-0.79 0.26,-0.23 0.58,-0.39 0.92,-0.47 0.47,-0.1 0.95,-0.16 1.45,-0.13 z"
         class="st0"
         inkscape:connector-curvature="0" />
      <path
         id="path26"
         d="m 77.232,9.67 c 0.106,-0.027 0.212,0.053 0.238,0.185 v 1.11 c 0.026,0.107 -0.053,0.213 -0.16,0.24 h -4.97 c -0.24,0 -0.45,0.026 -0.69,0.08 -0.158,0.025 -0.316,0.104 -0.422,0.237 -0.106,0.132 -0.185,0.264 -0.212,0.45 -0.053,0.21 -0.08,0.45 -0.053,0.66 v 1.14 c 0,0.237 0.028,0.448 0.054,0.66 0.027,0.16 0.106,0.318 0.212,0.423 0.1,0.106 0.26,0.186 0.42,0.24 0.23,0.052 0.45,0.078 0.68,0.078 h 4.92 c 0.1,-0.026 0.21,0.053 0.24,0.185 v 1.113 c 0.02,0.11 -0.06,0.21 -0.16,0.24 h -5.18 c -0.48,0 -0.98,-0.02 -1.46,-0.13 -0.35,-0.08 -0.67,-0.24 -0.93,-0.45 -0.24,-0.21 -0.43,-0.47 -0.51,-0.79 -0.11,-0.37 -0.16,-0.77 -0.16,-1.19 v -1.83 c 0,-0.39 0.05,-0.79 0.16,-1.19 0.08,-0.32 0.26,-0.58 0.5,-0.79 0.26,-0.23 0.58,-0.39 0.92,-0.47 0.47,-0.1 0.95,-0.16 1.45,-0.13 z"
         class="st0"
         inkscape:connector-curvature="0" />
      <path
         id="path28"
         d="m 85.17,9.67 c 0.37,0 0.714,0.026 1.084,0.105 0.265,0.053 0.476,0.186 0.662,0.344 0.185,0.18 0.29,0.39 0.344,0.66 0.08,0.31 0.105,0.63 0.105,0.98 v 1.21 c 0.027,0.21 -0.053,0.42 -0.185,0.55 -0.16,0.1 -0.344,0.18 -0.555,0.16 h -6.43 V 14 c -0.026,0.315 0.08,0.633 0.29,0.87 0.186,0.186 0.557,0.266 1.112,0.266 h 5.32 c 0.104,-0.027 0.21,0.052 0.237,0.185 v 1.11 c 0.026,0.11 -0.053,0.22 -0.16,0.24 h -5.53 c -0.475,0 -0.98,-0.02 -1.454,-0.13 -0.344,-0.08 -0.66,-0.24 -0.926,-0.45 -0.238,-0.21 -0.423,-0.47 -0.503,-0.79 -0.1,-0.37 -0.15,-0.76 -0.15,-1.19 v -1.82 c 0,-0.4 0.06,-0.79 0.16,-1.19 0.08,-0.31 0.27,-0.58 0.5,-0.79 0.27,-0.23 0.58,-0.39 0.93,-0.47 0.48,-0.1 0.96,-0.16 1.46,-0.13 z m -4.975,2.884 h 5.16 c 0.105,0.026 0.21,-0.053 0.21,-0.16 v -0.58 c 0.028,-0.21 -0.052,-0.397 -0.158,-0.556 -0.185,-0.132 -0.396,-0.185 -0.608,-0.16 h -3.21 c -0.56,0 -0.93,0.08 -1.11,0.266 -0.22,0.238 -0.32,0.556 -0.3,0.873 z"
         class="st0"
         inkscape:connector-curvature="0" />
    </g>
    <g
       id="g81"
       transform="matrix(0.26458,0,0,0.26458,0,0.012)">
      <linearGradient
         id="SVGID_1_"
         x1="435.354"
         x2="435.354"
         y1="84.328003"
         y2="2.697"
         gradientUnits="userSpaceOnUse">
        <stop
           id="stop32"
           offset="0"
           stop-color="#2C4B87" />
        <stop
           id="stop34"
           offset="1"
           stop-color="#6786C2" />
      </linearGradient>
      <path
         id="path37"
         d="m 450.8,30.2 c 12.4,3.8 16.8,20.2 7.8,30 L 454.8,54 c -1.7,8.2 -5.5,14.5 -13.5,17.5 -4.6,1.7 -9.1,1.5 -14.2,-0.4 l 5.3,-6.2 c -17.2,0.2 -26.1,-7.3 -24.8,-20.6 l 7.7,3.1 C 410.6,39 410.4,31.3 416,24 c 2.7,-3.5 6.6,-5.9 10.9,-6.6 l -0.6,8.1 c 6.2,-6.4 12.9,-9.1 20.8,-6.9 4.7,1.2 8.8,4.3 11.1,8.6 -1.9,0.5 -3.5,0.8 -5.1,1.4 -0.8,0.4 -1.5,1 -2.1,1.7 -5.7,-5 -12,-7.7 -19.8,-5.9 -10.3,2.4 -16.9,12.3 -15.4,23.1 1.4,9.9 11,17.5 21.2,16.8 10.5,-0.6 18.8,-9.2 19.1,-19.7 0.1,-5.6 -2.2,-10.1 -5.3,-14.4 z"
         class="st1"
         inkscape:connector-curvature="0"
         style="fill:url(#SVGID_1_);filter:url(#filter7464)" />
      <linearGradient
         id="SVGID_2_"
         x1="402.185"
         x2="402.185"
         y1="84.328003"
         y2="2.697"
         gradientUnits="userSpaceOnUse">
        <stop
           id="stop39"
           offset="0"
           stop-color="#2C4B87" />
        <stop
           id="stop41"
           offset="1"
           stop-color="#6786C2" />
      </linearGradient>
      <path
         id="path44"
         d="m 396,25.6 c 2.6,3.1 4.9,5.8 7.2,8.7 0.4,0.7 0.5,1.5 0.3,2.3 -2.5,11.9 0.8,22.2 9.1,30.9 C 406.3,67.1 398.1,60 394.5,51.9 390.6,43 391,34.4 396,25.6 Z"
         class="st2"
         inkscape:connector-curvature="0"
         style="fill:url(#SVGID_2_);filter:url(#filter7476)" />
      <linearGradient
         id="SVGID_3_"
         x1="428.57501"
         x2="428.57501"
         y1="84.328003"
         y2="2.697"
         gradientUnits="userSpaceOnUse">
        <stop
           id="stop46"
           offset="0"
           stop-color="#2C4B87" />
        <stop
           id="stop48"
           offset="1"
           stop-color="#6786C2" />
      </linearGradient>
      <path
         id="path51"
         d="m 451.1,73.3 c -8.4,13.7 -31.6,18 -45.1,2.7 3.6,-1.4 7.1,-2.9 10.7,-4.2 0.7,-0.1 1.4,0 2,0.4 10.4,6.1 21.3,6.1 32.4,1.1 z"
         class="st3"
         inkscape:connector-curvature="0"
         style="fill:url(#SVGID_3_);filter:url(#filter7416)" />
      <linearGradient
         id="SVGID_4_"
         x1="465.5"
         x2="465.5"
         y1="84.328003"
         y2="2.697"
         gradientUnits="userSpaceOnUse">
        <stop
           id="stop53"
           offset="0"
           stop-color="#2C4B87" />
        <stop
           id="stop55"
           offset="1"
           stop-color="#6786C2" />
      </linearGradient>
      <path
         id="path58"
         d="m 468.5,38.3 c 11.8,14.2 5.3,37.6 -11.3,43.5 -0.2,-3.6 -0.5,-7.1 -0.6,-10.6 0,-0.9 0.4,-1.7 1,-2.4 8.8,-8.1 12.4,-18.1 10.9,-30.5 z"
         class="st4"
         inkscape:connector-curvature="0"
         style="fill:url(#SVGID_4_);filter:url(#filter7428)" />
      <linearGradient
         id="SVGID_5_"
         x1="459.39999"
         x2="459.39999"
         y1="84.328003"
         y2="2.697"
         gradientUnits="userSpaceOnUse">
        <stop
           id="stop60"
           offset="0"
           stop-color="#2C4B87" />
        <stop
           id="stop62"
           offset="1"
           stop-color="#6786C2" />
      </linearGradient>
      <path
         id="path65"
         d="m 478.6,35.4 c -3.9,-1 -7.4,-1.8 -10.8,-2.8 -0.7,-0.3 -1.2,-0.8 -1.5,-1.4 -5.1,-11.2 -13.9,-17.6 -26,-20 16.9,-6.7 36.7,5.7 38.3,24.2 z"
         class="st5"
         inkscape:connector-curvature="0"
         style="fill:url(#SVGID_5_);filter:url(#filter7440)" />
      <linearGradient
         id="SVGID_6_"
         x1="423.20599"
         x2="423.20599"
         y1="84.328003"
         y2="2.697"
         gradientUnits="userSpaceOnUse">
        <stop
           id="stop67"
           offset="0"
           stop-color="#2C4B87" />
        <stop
           id="stop69"
           offset="1"
           stop-color="#6786C2" />
      </linearGradient>
      <path
         id="path72"
         d="m 405.8,29.5 c -1.3,-17.8 17.4,-33.4 34.8,-28.7 -2,3.2 -4,6.4 -6,9.4 -0.6,0.6 -1.3,0.9 -2.1,0.9 -11.7,1.4 -20.3,7.3 -26,17.6 -0.2,0.3 -0.4,0.6 -0.7,0.8 z"
         class="st6"
         inkscape:connector-curvature="0"
         style="fill:url(#SVGID_6_);filter:url(#filter7488)" />
      <linearGradient
         id="SVGID_7_"
         x1="435.47"
         x2="435.47"
         y1="84.328003"
         y2="2.697"
         gradientUnits="userSpaceOnUse">
        <stop
           id="stop74"
           offset="0"
           stop-color="#2C4B87" />
        <stop
           id="stop76"
           offset="1"
           stop-color="#6786C2" />
      </linearGradient>
      <path
         id="path79"
         d="m 435.7,29.2 c 8.4,0.2 15.1,7.1 14.9,15.6 -0.2,7.9 -6.3,14.4 -14.2,14.9 h -0.5 c -8.5,0.2 -15.5,-6.6 -15.6,-15.1 v -0.1 c -0.1,-8.4 6.6,-15.2 15,-15.3 z"
         class="st7"
         inkscape:connector-curvature="0"
         style="fill:url(#SVGID_7_);filter:url(#filter7452)" />
    </g>
  </g>
  <style
     id="style10">.st0{fill:#CDCDCD;} .st1{fill:url(#SVGID_1_);} .st2{fill:url(#SVGID_2_);} .st3{fill:url(#SVGID_3_);} .st4{fill:url(#SVGID_4_);} .st5{fill:url(#SVGID_5_);} .st6{fill:url(#SVGID_6_);} .st7{fill:url(#SVGID_7_);}</style>
</svg>
