<svg xmlns="http://www.w3.org/2000/svg" viewBox="0 0 15 15" width="15" height="15"><path d="M7.5 9.5c-.1 0-.3 0-.4-.1l-3-3c-.2-.2-.2-.5 0-.7.2-.2.5-.2.7 0l2.6 2.6L10 5.7c.2-.2.5-.2.7 0 .2.2.2.5 0 .7l-3 3c.1.1-.1.1-.2.1z" fill="#505050"/><path d="M7.5 9c-.3 0-.5-.2-.5-.5v-8c0-.3.2-.5.5-.5s.5.2.5.5v8c0 .3-.2.5-.5.5z" fill="#505050"/><g><path d="M12.5 15h-10C1.1 15 0 13.9 0 12.5v-2c0-.3.2-.5.5-.5s.5.2.5.5v2c0 .8.7 1.5 1.5 1.5h10c.8 0 1.5-.7 1.5-1.5v-2c0-.3.2-.5.5-.5s.5.2.5.5v2c0 1.4-1.1 2.5-2.5 2.5z" fill="#505050"/></g></svg>