<svg xmlns="http://www.w3.org/2000/svg" viewBox="0 0 15.941422 14.5" width="15.941" height="14.5"><g fill="#505050"><path d="M10.1 8.6c-.7 0-1.4-.3-1.9-.8-.8-.8-1.7-2.5.8-5 2-2 6.2-2.7 6.4-2.8.2 0 .3 0 .4.1.1.1.2.3.1.4 0 .2-.8 4.4-2.8 6.4-1 1.1-2 1.7-3 1.7zm4.8-7.5c-1.3.3-3.8 1-5.2 2.3C8.2 4.9 8 6.1 8.9 7c1 1 2.2.7 3.6-.8 1.3-1.3 2.1-3.9 2.4-5.1z"/><path d="M7.6 14h-1c0-2.1.7-4.3 2-6.6l.9.5C8.2 10 7.6 12.1 7.6 14zM4.7 7.4c-.7 0-1.4-.3-2.2-.9C.9 5.2.1 2.3 0 2.2c0-.2 0-.3.1-.5.1-.1.2-.2.4-.2.1 0 3.2.2 4.8 1.4.9.7 1.4 1.4 1.5 2.1.1.5-.1 1-.5 1.5-.4.6-1 .9-1.6.9zM1.2 2.6c.3.9 1 2.3 1.9 3.1 1 .8 1.8 1 2.4.3.2-.3.3-.5.2-.8-.1-.4-.4-.9-1.1-1.5-.8-.7-2.4-1-3.4-1.1z"/><path d="M8.1 11h-1c0-1.5-.5-3-1.7-4.4l.8-.6c1.2 1.6 1.9 3.3 1.9 5z"/><g><path d="M9.1 14.5H5.2c-.3 0-.5-.2-.5-.5s.2-.5.5-.5h3.9c.3 0 .5.2.5.5s-.2.5-.5.5z"/></g></g></svg>