<svg xmlns="http://www.w3.org/2000/svg" viewBox="0 0 512.17198 447.52896" width="15" height="11"><path d="M509.035 215.89L295.53 3.09C292.48.063 287.916-.812 283.905.788c-3.968 1.664-6.57 5.547-6.57 9.856v117.333H10.666C4.78 127.976 0 132.756 0 138.643V309.31c0 5.888 4.78 10.667 10.667 10.667h266.667v116.885c0 4.31 2.603 8.192 6.592 9.856 1.323.555 2.71.81 4.075.81 2.774 0 5.505-1.087 7.532-3.135l213.525-213.397c1.984-2.005 3.115-4.715 3.115-7.552 0-2.837-1.132-5.548-3.137-7.553zM298.667 411.114V309.31c0-5.888-4.78-10.667-10.667-10.667H21.333V149.31H288c5.888 0 10.667-4.78 10.667-10.667V36.328L486.4 223.443z" fill="#50788F"/></svg>