<svg xmlns="http://www.w3.org/2000/svg" viewBox="0 0 297 297" width="17" height="17"><path d="M279.15 9.31c-3.488-4.462-9.932-5.254-14.398-1.767l-34.934 27.294C209.61 13.402 180.976 0 149.268 0 88.198 0 38.515 49.703 38.515 110.797c0 21.348 5.485 42.575 13.938 62.615l-32.836 25.654c-4.46 3.486-5.252 9.932-1.768 14.395 1.743 2.23 4.226 3.544 6.832 3.867 2.607.318 5.334-.358 7.567-2.1l29.225-22.834c29.722 56.368 78.088 99.468 81.016 102.048 1.938 1.706 4.358 2.56 6.778 2.56s4.842-.853 6.778-2.56c4.245-3.738 103.976-92.617 103.976-183.644 0-22.013-6.45-42.546-17.56-59.808l34.92-27.284c4.462-3.483 5.253-9.93 1.768-14.393zM59.026 110.798c0-49.784 40.482-90.287 90.242-90.287 25.152 0 47.93 10.353 64.31 27.017L182.665 71.68c-8.98-7.778-20.646-12.496-33.395-12.496-28.273 0-51.276 23.153-51.276 51.613 0 8.21 1.924 15.975 5.327 22.873L69.29 160.26c-6.306-16.158-10.262-32.89-10.262-49.463zm121.008 0c0 17.15-13.802 31.104-30.766 31.104-6.168 0-11.914-1.85-16.734-5.024l45.926-35.882c1.014 3.084 1.574 6.378 1.574 9.803zm-61.53 0c0-17.15 13.802-31.104 30.765-31.104 6.16 0 11.9 1.848 16.72 5.015l-45.917 35.873c-1.013-3.077-1.57-6.365-1.57-9.783zm121.008 0c0 68.862-68.194 140.525-90.244 161.892-14.6-14.15-49.424-50.35-71.294-93.187l37.886-29.6c8.982 7.785 20.654 12.508 33.408 12.508 28.273 0 51.275-23.152 51.275-51.613 0-8.217-1.927-15.986-5.335-22.89l31.01-24.228c8.428 13.724 13.294 29.862 13.294 47.117z" fill="#505050"/></svg>