<svg xmlns="http://www.w3.org/2000/svg" width="15" height="16.5"><path d="M7.5 14C3.9 14 0 13.2 0 11.5c0-.3.2-.5.5-.5.8 0 1.5-.7 1.5-1.5v-2C2 4.5 4.5 2 7.5 2S13 4.5 13 7.5v2c0 .8.7 1.5 1.5 1.5.3 0 .5.2.5.5 0 1.7-3.9 2.5-7.5 2.5zm-6.2-2.1c.8.5 2.8 1.1 6.2 1.1 3.4 0 5.4-.6 6.2-1.1-1-.3-1.7-1.3-1.7-2.4v-2C12 5 10 3 7.5 3S3 5 3 7.5v2c0 1.1-.7 2-1.7 2.4z" fill="#505050"/><path d="M7.5 16.5c-1.7 0-3-1.3-3-3 0-.3.2-.5.5-.5s.5.2.5.5c0 1.1.9 2 2 2s2-.9 2-2c0-.3.2-.5.5-.5s.5.2.5.5c0 1.7-1.3 3-3 3zM7 2.5v-2c0-.3.2-.5.5-.5s.5.2.5.5v2z" fill="#505050"/></svg>