<svg xmlns="http://www.w3.org/2000/svg" viewBox="0 0 512 512" width="17" height="17"><path d="M511.61 197.6c-.002-.77-.174-1.932-.473-2.602-.787-2.854-2.536-5.46-5.154-7.28l-73.292-50.95V82.154c0-7.24-5.87-13.112-13.11-13.112h-84.32l-71.743-49.877c-4.484-3.12-10.437-3.134-14.935-.026L176.376 69.04h-83.95c-7.242 0-13.112 5.873-13.112 13.113v53.973l-73.648 50.9c-3.623 2.505-5.583 6.508-5.645 10.6-.003.078-.02.15-.02.23l.39 284.236c.006 3.477 1.392 6.81 3.853 9.266 2.458 2.45 5.788 3.827 9.26 3.827h.018l485.386-.667c7.24-.01 13.104-5.89 13.094-13.13l-.39-283.787zm-78.92-28.892l41.898 29.118-41.898 29.128v-58.246zM256.015 45.884l33.31 23.156h-66.812l33.502-23.156zm-150.477 49.38h300.928v149.922L305.43 315.428l-41.194-31.954c-.064-.05-.12-.08-.18-.126-4.605-3.454-11.117-3.58-15.895.126L206.67 315.66l-101.13-69.894v-150.5zm-26.224 72.74v59.64l-43.146-29.82 43.146-29.82zm-53.056 54.863l158.67 109.655-158.35 122.824-.32-232.48zM51.875 468.91L256.2 310.424l203.59 157.923-407.915.56zm275.27-136.64L485.42 222.236l.32 233.06L327.144 332.27z" fill="#DBDBDB"/><path d="M344.77 147.713H167.234c-7.24 0-13.112 5.872-13.112 13.112s5.872 13.112 13.112 13.112H344.77c7.242 0 13.112-5.872 13.112-13.112s-5.87-13.112-13.112-13.112zM344.77 215.895H167.234c-7.24 0-13.112 5.872-13.112 13.112s5.872 13.112 13.112 13.112H344.77c7.242 0 13.112-5.873 13.112-13.113 0-7.24-5.87-13.112-13.112-13.112z" fill="#DBDBDB"/></svg>