<svg xmlns="http://www.w3.org/2000/svg" viewBox="0 0 15.010858 13.563009" width="15.011" height="13.563"><g stroke="#505050" stroke-width=".2"><path d="M10.942.344c3.318 2.05 4.326 6.316 2.277 9.634-2.05 3.318-6.317 4.327-9.635 2.277C.267 10.205-.742 5.94 1.308 2.62c.157-.254.433-.32.688-.162.255.158.32.433.163.69-1.736 2.806-.857 6.522 1.95 8.256 2.808 1.735 6.524.856 8.258-1.95 1.734-2.81.856-6.525-1.952-8.26z" fill="#505050"/><path d="M10.254.507l.052-.085c.053-.085.19-.118.328-.15l3.636.012c.223.02.478.178.49.538-.02.223-.177.478-.538.49l-3.137-.057-.058 3.138c-.02.223-.178.478-.538.49-.224-.02-.48-.177-.492-.538L10.01.71c.14-.033.19-.118.244-.203z" fill="#505050"/></g><path d="M6.426 13.243C3.724 12.868 1.486 11.04.632 8.51.287 7.49.186 6.207.368 5.164c.157-.9.666-2.184 1.032-2.6.176-.202.425-.216.638-.037.243.204.233.315-.083.944-.462.92-.65 1.608-.697 2.565-.032.664.068 1.417.277 2.07.635 1.99 2.204 3.485 4.22 4.02.528.14.596.148 1.472.15.85 0 .958-.01 1.436-.13 2.38-.598 4.11-2.443 4.525-4.824.09-.52.09-1.49-.002-2.02-.146-.843-.48-1.68-.954-2.394-.203-.305-1.065-1.252-1.14-1.252-.018 0-.047.64-.064 1.424-.033 1.556-.035 1.565-.326 1.73-.167.095-.443.02-.573-.154-.097-.13-.1-.18-.1-2.006V.775l.154-.153c.084-.085.153-.17.153-.192 0-.117.376-.143 2.105-.143 1.94 0 2.038.01 2.2.24.115.166.098.437-.037.594l-.114.133h-1.18c-.65 0-1.183.007-1.183.016 0 .008.15.178.334.376.812.875 1.43 2.103 1.68 3.337.127.635.115 2.04-.025 2.687-.303 1.398-.932 2.545-1.96 3.574-1.023 1.022-2.1 1.608-3.51 1.91-.517.11-1.72.158-2.22.09z" fill="none" paint-order="stroke markers fill"/><path d="M6.426 13.243C3.724 12.868 1.486 11.04.632 8.51.287 7.49.186 6.207.368 5.164c.157-.9.666-2.184 1.032-2.6.176-.202.425-.216.638-.037.243.204.233.315-.083.944-.462.92-.65 1.608-.697 2.565-.032.664.068 1.417.277 2.07.635 1.99 2.204 3.485 4.22 4.02.528.14.596.148 1.472.15.85 0 .958-.01 1.436-.13 2.38-.598 4.11-2.443 4.525-4.824.09-.52.09-1.49-.002-2.02-.146-.843-.48-1.68-.954-2.394-.203-.305-1.065-1.252-1.14-1.252-.018 0-.047.64-.064 1.424-.033 1.556-.035 1.565-.326 1.73-.167.095-.443.02-.573-.154-.097-.13-.1-.18-.1-2.006V.775l.154-.153c.084-.085.153-.17.153-.192 0-.117.376-.143 2.105-.143 1.94 0 2.038.01 2.2.24.115.166.098.437-.037.594l-.114.133h-1.18c-.65 0-1.183.007-1.183.016 0 .008.15.178.334.376.812.875 1.43 2.103 1.68 3.337.127.635.115 2.04-.025 2.687-.303 1.398-.932 2.545-1.96 3.574-1.023 1.022-2.1 1.608-3.51 1.91-.517.11-1.72.158-2.22.09z" fill="none" paint-order="stroke markers fill"/><path d="M6.426 13.243C3.724 12.868 1.486 11.04.632 8.51.287 7.49.186 6.207.368 5.164c.157-.9.666-2.184 1.032-2.6.176-.202.425-.216.638-.037.243.204.233.315-.083.944-.462.92-.65 1.608-.697 2.565-.032.664.068 1.417.277 2.07.635 1.99 2.204 3.485 4.22 4.02.528.14.596.148 1.472.15.85 0 .958-.01 1.436-.13 2.38-.598 4.11-2.443 4.525-4.824.09-.52.09-1.49-.002-2.02-.146-.843-.48-1.68-.954-2.394-.203-.305-1.065-1.252-1.14-1.252-.018 0-.047.64-.064 1.424-.033 1.556-.035 1.565-.326 1.73-.167.095-.443.02-.573-.154-.097-.13-.1-.18-.1-2.006V.775l.154-.153c.084-.085.153-.17.153-.192 0-.117.376-.143 2.105-.143 1.94 0 2.038.01 2.2.24.115.166.098.437-.037.594l-.114.133h-1.18c-.65 0-1.183.007-1.183.016 0 .008.15.178.334.376.812.875 1.43 2.103 1.68 3.337.127.635.115 2.04-.025 2.687-.303 1.398-.932 2.545-1.96 3.574-1.023 1.022-2.1 1.608-3.51 1.91-.517.11-1.72.158-2.22.09z" fill="none" paint-order="stroke markers fill"/><path d="M6.426 13.243C3.724 12.868 1.486 11.04.632 8.51.287 7.49.186 6.207.368 5.164c.157-.9.666-2.184 1.032-2.6.176-.202.425-.216.638-.037.243.204.233.315-.083.944-.462.92-.65 1.608-.697 2.565-.032.664.068 1.417.277 2.07.635 1.99 2.204 3.485 4.22 4.02.528.14.596.148 1.472.15.85 0 .958-.01 1.436-.13 2.38-.598 4.11-2.443 4.525-4.824.09-.52.09-1.49-.002-2.02-.146-.843-.48-1.68-.954-2.394-.203-.305-1.065-1.252-1.14-1.252-.018 0-.047.64-.064 1.424-.033 1.556-.035 1.565-.326 1.73-.167.095-.443.02-.573-.154-.097-.13-.1-.18-.1-2.006V.775l.154-.153c.084-.085.153-.17.153-.192 0-.117.376-.143 2.105-.143 1.94 0 2.038.01 2.2.24.115.166.098.437-.037.594l-.114.133h-1.18c-.65 0-1.183.007-1.183.016 0 .008.15.178.334.376.812.875 1.43 2.103 1.68 3.337.127.635.115 2.04-.025 2.687-.303 1.398-.932 2.545-1.96 3.574-1.023 1.022-2.1 1.608-3.51 1.91-.517.11-1.72.158-2.22.09z" fill="none" paint-order="stroke markers fill"/><path d="M6.426 13.243C3.724 12.868 1.486 11.04.632 8.51.287 7.49.186 6.207.368 5.164c.157-.9.666-2.184 1.032-2.6.176-.202.425-.216.638-.037.243.204.233.315-.083.944-.462.92-.65 1.608-.697 2.565-.032.664.068 1.417.277 2.07.635 1.99 2.204 3.485 4.22 4.02.528.14.596.148 1.472.15.85 0 .958-.01 1.436-.13 2.38-.598 4.11-2.443 4.525-4.824.09-.52.09-1.49-.002-2.02-.146-.843-.48-1.68-.954-2.394-.203-.305-1.065-1.252-1.14-1.252-.018 0-.047.64-.064 1.424-.033 1.556-.035 1.565-.326 1.73-.167.095-.443.02-.573-.154-.097-.13-.1-.18-.1-2.006V.775l.154-.153c.084-.085.153-.17.153-.192 0-.117.376-.143 2.105-.143 1.94 0 2.038.01 2.2.24.115.166.098.437-.037.594l-.114.133h-1.18c-.65 0-1.183.007-1.183.016 0 .008.15.178.334.376.812.875 1.43 2.103 1.68 3.337.127.635.115 2.04-.025 2.687-.303 1.398-.932 2.545-1.96 3.574-1.023 1.022-2.1 1.608-3.51 1.91-.517.11-1.72.158-2.22.09z" fill="none" paint-order="stroke markers fill"/><path d="M6.426 13.243C3.724 12.868 1.486 11.04.632 8.51.287 7.49.186 6.207.368 5.164c.157-.9.666-2.184 1.032-2.6.176-.202.425-.216.638-.037.243.204.233.315-.083.944-.462.92-.65 1.608-.697 2.565-.032.664.068 1.417.277 2.07.635 1.99 2.204 3.485 4.22 4.02.528.14.596.148 1.472.15.85 0 .958-.01 1.436-.13 2.38-.598 4.11-2.443 4.525-4.824.09-.52.09-1.49-.002-2.02-.146-.843-.48-1.68-.954-2.394-.203-.305-1.065-1.252-1.14-1.252-.018 0-.047.64-.064 1.424-.033 1.556-.035 1.565-.326 1.73-.167.095-.443.02-.573-.154-.097-.13-.1-.18-.1-2.006V.775l.154-.153c.084-.085.153-.17.153-.192 0-.117.376-.143 2.105-.143 1.94 0 2.038.01 2.2.24.115.166.098.437-.037.594l-.114.133h-1.18c-.65 0-1.183.007-1.183.016 0 .008.15.178.334.376.812.875 1.43 2.103 1.68 3.337.127.635.115 2.04-.025 2.687-.303 1.398-.932 2.545-1.96 3.574-1.023 1.022-2.1 1.608-3.51 1.91-.517.11-1.72.158-2.22.09z" fill="none" paint-order="stroke markers fill"/></svg>