<svg xmlns="http://www.w3.org/2000/svg" viewBox="0 0 14.914529 14.4" width="14.915" height="14.4"><path d="M11.136 14.4c-.2 0-.5-.1-.7-.2l-2.8-1.4c-.1-.1-.3-.1-.4 0l-2.8 1.4c-.6.3-1.4.1-1.8-.4-.3-.3-.4-.8-.3-1.2l.4-3.1c0-.2 0-.3-.1-.4l-2.2-2.2c-.4-.4-.5-1-.4-1.5.2-.5.6-.9 1.2-1l3.1-.5c.2 0 .3-.1.4-.3l1.4-2.8c.3-.5.8-.8 1.3-.8s1.1.3 1.3.8l1.4 2.8c.1.1.2.2.4.3l3.1.5c.6.1 1 .5 1.2 1 .2.5 0 1.1-.4 1.5l-2.2 2.2c-.1.1-.2.3-.1.4l.5 3.1c.1.4-.1.9-.3 1.2-.4.4-.8.6-1.2.6zm-3.7-2.6c.2 0 .5.1.7.2l2.8 1.4c.2.1.5 0 .6-.1.1-.1.1-.2.1-.4l-.5-3.1c-.1-.5.1-.9.4-1.3l2.2-2.2c.1-.1.2-.3.1-.5 0-.1-.1-.3-.4-.3l-3-.7c-.5-.1-.9-.4-1.1-.8l-1.4-2.8c-.2-.3-.7-.3-.9 0L5.636 4c-.2.4-.6.7-1.1.8l-3.1.6c-.3 0-.4.3-.4.3-.1.2 0 .4.1.5l2.2 2.2c.3.3.5.8.4 1.3l-.4 3.1c0 .2 0 .3.1.4.1.2.4.2.6.1l2.8-1.4c.1-.1.4-.1.6-.1z" fill="#505050"/></svg>