<svg xmlns="http://www.w3.org/2000/svg" viewBox="0 0 14.4 14.914529" width="16.407" height="16.944"><path d="M10.778 14.915c-.193 0-.484-.104-.677-.208l-2.71-1.45c-.096-.103-.29-.103-.387 0l-2.71 1.45c-.58.31-1.355.104-1.742-.414-.29-.31-.386-.828-.29-1.242l.388-3.21c0-.206 0-.31-.097-.413L.423 7.15C.035 6.734-.062 6.113.035 5.595c.193-.518.58-.932 1.16-1.035l3.002-.517c.193 0 .29-.103.387-.31L5.94.833c.29-.517.773-.828 1.257-.828.484 0 1.065.31 1.258.828l1.355 2.9c.097.103.194.207.387.31l3 .518c.58.104.97.518 1.162 1.036.193.518 0 1.14-.388 1.553l-2.13 2.277c-.096.104-.193.31-.096.414l.484 3.21c.097.415-.097.933-.29 1.243-.388.414-.775.622-1.162.622zm-3.58-2.692c.193 0 .483.103.677.207l2.71 1.45c.193.103.483 0 .58-.104.097-.104.097-.207.097-.415l-.484-3.208c-.097-.518.097-.932.387-1.346l2.13-2.278c.096-.104.193-.31.096-.518 0-.103-.095-.31-.386-.31L10.1 4.975c-.483-.104-.87-.414-1.064-.828l-1.355-2.9c-.193-.31-.677-.31-.87 0l-1.355 2.9c-.194.414-.58.724-1.065.828l-3 .62c-.29 0-.387.312-.387.312-.097.207 0 .414.097.517l2.13 2.278c.29.31.483.83.386 1.346l-.387 3.21c0 .207 0 .31.096.414.096.207.387.207.58.104l2.71-1.45c.097-.103.387-.103.58-.103z" fill="#505050"/></svg>