<svg xmlns="http://www.w3.org/2000/svg" viewBox="0 0 26.955 25.724" width="12" height="12"><path fill="#f0f" paint-order="markers stroke fill" d="M3.426 4.366h21.473v18.046H3.426z"/><path d="M3.354 13.388v9.023h21.587V4.364H3.354v9.024z" fill="red" paint-order="markers stroke fill"/><path d="M24.81 0H2.145A2.143 2.143 0 0 0 0 2.144v21.438c0 1.181.959 2.142 2.145 2.142H24.81a2.145 2.145 0 0 0 2.145-2.142V2.144A2.146 2.146 0 0 0 24.81 0zm-2.534 14.243l-5.978 5.98c-.777.775-1.998.812-2.723.087-.729-.729-.691-1.948.088-2.722l2.859-2.863H5.936a1.867 1.867 0 0 1-1.867-1.862c0-1.031.835-1.867 1.867-1.867h10.641l-2.874-2.872c-.765-.767-.797-1.976-.068-2.704.729-.727 1.939-.696 2.704.068l5.901 5.899c.024.025.043.056.067.084.019.016.042.027.061.048.727.727.689 1.947-.092 2.724z" fill="#fff"/></svg>