<svg xmlns="http://www.w3.org/2000/svg" viewBox="0 0 18.1 10.9" width="18.1" height="10.9"><path d="M9.05 10.9c-3.8 0-7-2.7-8.6-4.3-.6-.6-.6-1.7 0-2.3C2.05 2.7 5.25 0 9.05 0s7 2.7 8.6 4.3c.6.6.6 1.7 0 2.3-1.6 1.6-4.8 4.3-8.6 4.3zm0-10c-3.6 0-6.7 2.8-7.9 4-.3.3-.3.7 0 .9 1.2 1.2 4.3 4 7.9 4 3.6 0 6.7-2.8 7.9-4 .3-.3.3-.7 0-.9-1.2-1.2-4.3-4-7.9-4z"/><path d="M9.05 7.9c-1.4 0-2.5-1.1-2.5-2.5s1.1-2.5 2.5-2.5 2.5 1.1 2.5 2.5-1.1 2.5-2.5 2.5zm0-4c-.8 0-1.5.7-1.5 1.5s.7 1.5 1.5 1.5 1.5-.7 1.5-1.5-.7-1.5-1.5-1.5z" fill="#505050"/></svg>