<svg xmlns="http://www.w3.org/2000/svg" viewBox="0 0 16.163306 16.040568" width="16" height="16"><path d="M15.81 16.04H6.978c-.195 0-.353-.157-.353-.352 0-.195.158-.353.353-.353h8.834c.195 0 .353.158.353.353 0 .195-.158.353-.352.353zM15.81 10.93H.354c-.195 0-.353-.16-.353-.353 0-.195.158-.353.353-.353H15.81c.195 0 .353.158.353.353 0 .194-.158.352-.352.352zM15.81 5.817H6.978c-.195 0-.353-.158-.353-.352 0-.195.158-.353.353-.353h8.834c.195 0 .353.158.353.353 0 .194-.158.352-.352.352zM15.81.705H.354C.158.705 0 .547 0 .353 0 .158.158 0 .353 0H15.81c.195 0 .353.158.353.353 0 .194-.158.352-.352.352z"/></svg>