<svg xmlns="http://www.w3.org/2000/svg" viewBox="0 0 16.06547 15.943475" width="16" height="16"><path d="M12.423 15.943h-8.78c-.194 0-.35-.157-.35-.35 0-.194.156-.35.35-.35h8.78c.193 0 .35.156.35.35 0 .193-.156.35-.35.35zM15.715 10.863H.35c-.193 0-.35-.157-.35-.35 0-.194.157-.35.35-.35h15.365c.193 0 .35.156.35.35 0 .193-.157.35-.35.35zM12.423 5.782h-8.78c-.194 0-.35-.157-.35-.35 0-.194.156-.35.35-.35h8.78c.193 0 .35.156.35.35 0 .193-.156.35-.35.35zM15.715.7H.35C.158.7 0 .545 0 .35 0 .158.157 0 .35 0h15.365c.193 0 .35.157.35.35 0 .194-.157.35-.35.35z"/></svg>