<svg xmlns="http://www.w3.org/2000/svg" viewBox="0 0 14.565254 14.453389" width="16" height="16"><path d="M14.247 14.453H.317c-.175 0-.317-.142-.317-.317 0-.176.142-.318.318-.318h13.93c.175 0 .317.142.317.318 0 .175-.142.317-.318.317zM14.247 9.848H.317C.143 9.848 0 9.706 0 9.53c0-.175.142-.318.318-.318h13.93c.175 0 .317.143.317.318 0 .176-.142.318-.318.318zM14.247 5.242H.317C.143 5.242 0 5.1 0 4.924c0-.175.142-.318.318-.318h13.93c.175 0 .317.143.317.318 0 .175-.142.318-.318.318zM14.247.636H.317C.143.636 0 .493 0 .318 0 .142.142 0 .318 0h13.93c.175 0 .317.142.317.318 0 .175-.142.318-.318.318z"/></svg>