<svg xmlns="http://www.w3.org/2000/svg" viewBox="0 0 11.942466 11.85178" width="16" height="16"><path d="M6.787 11.852H.26c-.143 0-.26-.117-.26-.26 0-.145.117-.26.26-.26h6.527c.144 0 .26.115.26.26 0 .143-.115.26-.26.26zm4.895-3.777H.262C.116 8.075 0 7.96 0 7.815c0-.145.117-.26.26-.26h11.422c.144 0 .26.116.26.26 0 .142-.116.26-.26.26zM6.787 4.298H.26c-.143 0-.26-.117-.26-.26 0-.144.117-.26.26-.26h6.527c.144 0 .26.116.26.26 0 .143-.115.26-.26.26zM11.682.52H.262C.116.52 0 .405 0 .26 0 .118.117 0 .26 0h11.422c.144 0 .26.117.26.26 0 .144-.116.26-.26.26z"/></svg>