<svg xmlns:osb="http://www.openswatchbook.org/uri/2009/osb" xmlns="http://www.w3.org/2000/svg" xmlns:xlink="http://www.w3.org/1999/xlink" viewBox="0 0 15.406884 15.943647" width="16.407" height="16.944"><defs><linearGradient id="a" osb:paint="solid"><stop offset="0" stop-color="#505050"/></linearGradient><linearGradient xlink:href="#a" id="b" x1="12.564" y1="20" x2="27.478" y2="20" gradientUnits="userSpaceOnUse"/><linearGradient xlink:href="#a" id="d" gradientUnits="userSpaceOnUse" x1="12.564" y1="20" x2="27.478" y2="20"/><linearGradient xlink:href="#a" id="c" gradientUnits="userSpaceOnUse" x1="12.564" y1="20" x2="27.478" y2="20"/></defs><path d="M23.7 27.2c-.2 0-.5-.1-.7-.2l-2.8-1.4c-.1-.1-.3-.1-.4 0L17 27c-.6.3-1.4.1-1.8-.4-.3-.3-.4-.8-.3-1.2l.4-3.1c0-.2 0-.3-.1-.4L13 19.7c-.4-.4-.5-1-.4-1.5.2-.5.6-.9 1.2-1l3.1-.5c.2 0 .3-.1.4-.3l1.4-2.8c.3-.5.8-.8 1.3-.8s1.1.3 1.3.8l1.4 2.8c.1.1.2.2.4.3l3.1.5c.6.1 1 .5 1.2 1 .2.5 0 1.1-.4 1.5l-2.2 2.2c-.1.1-.2.3-.1.4l.5 3.1c.1.4-.1.9-.3 1.2-.4.4-.8.6-1.2.6zM20 24.6c.2 0 .5.1.7.2l2.8 1.4c.2.1.5 0 .6-.1.1-.1.1-.2.1-.4l-.5-3.1c-.1-.5.1-.9.4-1.3l2.2-2.2c.1-.1.2-.3.1-.5 0-.1-.1-.3-.4-.3l-3-.7c-.5-.1-.9-.4-1.1-.8L20.5 14c-.2-.3-.7-.3-.9 0l-1.4 2.8c-.2.4-.6.7-1.1.8l-3.1.6c-.3 0-.4.3-.4.3-.1.2 0 .4.1.5l2.2 2.2c.3.3.5.8.4 1.3l-.4 3.1c0 .2 0 .3.1.4.1.2.4.2.6.1l2.8-1.4c.1-.1.4-.1.6-.1z" fill="url(#d)" transform="matrix(.96786 0 0 1.03537 -11.675 -12.736)" stroke="#505050" stroke-width=".999"/><path d="M9.703 13.644c-.8-.428-1.54-.81-1.647-.846-.244-.085-.738-.095-.884-.02l-1.298.697c-1.594.857-1.596.858-1.75.858-.244 0-.383-.177-.383-.487 0-.108.09-.92.196-1.804.107-.885.195-1.692.195-1.795 0-.102-.02-.267-.046-.365-.1-.382-.2-.51-1.392-1.784-.618-.66-1.148-1.25-1.18-1.308-.105-.205.012-.555.21-.63.048-.016.794-.175 1.66-.352.865-.177 1.644-.348 1.732-.38.232-.087.51-.29.655-.475.083-.11.36-.667.832-1.676.39-.83.737-1.544.773-1.584.083-.09.23-.154.356-.154.123 0 .338.102.393.188.024.036.316.652.65 1.37.797 1.707.835 1.78 1.043 1.988.295.295.393.33 2.237.782 1.24.304 1.66.42 1.71.465.123.115.168.374.095.548-.023.054-.546.637-1.162 1.297-.99 1.06-1.137 1.228-1.245 1.438-.156.304-.218.516-.218.75 0 .103.115.946.256 1.875.26 1.72.272 1.85.174 1.998-.058.09-.264.183-.4.184-.08 0-.45-.185-1.56-.778z" fill="#505050" paint-order="fill markers stroke"/><path d="M10.977 14.294c-.115-.056-.668-.345-1.23-.642-1.787-.948-1.822-.962-2.304-.93-.215.013-.225.017-1.368.63-1.688.903-1.802.96-1.946.96-.142 0-.263-.076-.325-.203-.075-.154-.07-.2.238-2.886.138-1.196.11-1.45-.21-1.87-.183-.24-.326-.4-1.233-1.38C1.503 6.793 1.494 6.78 1.494 6.61c0-.168.1-.365.21-.417.04-.02.695-.166 1.453-.324 2.163-.455 2.118-.44 2.454-.74.2-.178.31-.373.852-1.524.952-2.016.925-1.97 1.163-2.034.11-.03.21-.01.365.07.114.058.09.01.874 1.68.608 1.296.744 1.556.91 1.744.243.277.485.365 2.162.785 1.827.46 1.81.453 1.887.602.06.118.058.358-.005.45-.064.097-.402.473-1.058 1.18-1.168 1.262-1.272 1.39-1.41 1.716-.07.167-.102.3-.112.454-.016.248-.01.292.25 2.073.27 1.87.27 1.827.084 1.968-.165.126-.34.126-.595 0z" fill="#505050" paint-order="fill markers stroke"/><path d="M10.972 14.292c-.12-.057-.73-.377-1.358-.71-1.458-.772-1.6-.835-1.93-.858-.155-.01-.306-.004-.393.018-.076.02-.614.29-1.193.6-1.946 1.04-1.88 1.01-2.066.958-.136-.037-.224-.14-.253-.3-.03-.16-.014-.348.176-1.99.185-1.597.203-1.88.135-2.14-.09-.35-.238-.543-1.264-1.65-.657-.71-1.072-1.166-1.234-1.356-.08-.093-.096-.14-.096-.255 0-.168.1-.365.21-.417.04-.02.75-.177 1.574-.35 1.724-.365 1.916-.415 2.14-.565.338-.225.404-.33 1.02-1.627.73-1.54.92-1.916.99-1.98.15-.134.34-.144.562-.03.112.06.14.11.77 1.457.68 1.455.863 1.804 1.045 1.99.277.284.397.327 2.193.78 1.78.446 1.748.436 1.825.585.053.102.06.337.012.425-.04.08-.407.488-1.226 1.373-1.08 1.167-1.168 1.28-1.306 1.67-.118.337-.118.342.212 2.6.19 1.292.215 1.557.16 1.66-.064.116-.19.19-.345.204-.118.01-.18-.006-.358-.092z" fill="#505050" paint-order="fill markers stroke"/><path d="M10.63 14.116c-.304-.156-.916-.477-1.36-.712-1.216-.642-1.4-.71-1.814-.682-.226.016-.247.026-1.693.8-1.362.73-1.497.795-1.64.79-.135-.002-.258-.08-.318-.203-.066-.135-.048-.414.128-1.95.198-1.743.216-1.98.167-2.218-.08-.394-.203-.555-1.382-1.835C1.415 6.693 1.494 6.79 1.494 6.614c0-.132.078-.33.155-.393.056-.046.263-.095 1.492-.35 2.045-.43 2.188-.473 2.506-.784.137-.133.206-.254.56-.973.22-.452.562-1.158.757-1.57.196-.412.394-.79.44-.843.14-.162.347-.182.585-.06.114.06.1.035.86 1.643.317.67.635 1.324.707 1.45.146.258.362.492.53.578.203.104.698.246 2.043.59 1.683.428 1.588.4 1.67.52.084.126.093.372.018.483-.074.11-.36.43-1.15 1.286-1.186 1.286-1.277 1.408-1.397 1.866-.065.252-.045.474.2 2.142.236 1.592.264 1.855.208 1.968-.062.127-.183.203-.35.22-.14.013-.178-.003-.698-.27z" fill="#505050" paint-order="fill markers stroke"/><path d="M10.857 14.235c-.18-.09-.653-.336-1.05-.546-1.792-.957-2.094-1.067-2.542-.933-.078.024-.74.362-1.472.752s-1.4.734-1.483.766c-.27.102-.484-.01-.534-.276-.03-.158 0-.512.172-1.99.162-1.41.194-1.827.154-2.043-.073-.4-.232-.61-1.516-2-.44-.478-.868-.95-.95-1.047-.146-.175-.148-.18-.136-.35.01-.127.033-.2.092-.277.095-.123.03-.106 1.76-.47 1.824-.384 1.984-.435 2.286-.732.147-.144.21-.25.554-.95.213-.434.548-1.125.743-1.537.38-.8.433-.892.554-.982.105-.076.316-.077.465 0 .147.075.138.058.872 1.61.693 1.466.813 1.686 1.04 1.9.26.245.4.292 2.428.81.71.18 1.326.342 1.37.36.18.07.272.428.153.603-.072.106-.367.44-.97 1.093-1.383 1.504-1.458 1.602-1.576 2.06-.063.245-.052.357.2 2.12.235 1.647.26 1.898.203 2.004-.062.115-.188.19-.344.204-.127.012-.18-.005-.473-.15z" fill="#505050" paint-order="fill markers stroke"/><path d="M10.854 14.232c-.18-.088-.677-.346-1.106-.573-.963-.513-1.542-.797-1.77-.873-.12-.04-.26-.057-.432-.056-.298.002-.23-.03-1.992.908-1.193.634-1.354.708-1.493.68-.11-.025-.223-.12-.265-.225-.053-.132-.03-.48.124-1.85.18-1.607.21-2 .177-2.247-.058-.424-.136-.528-1.558-2.078-.495-.538-.933-1.023-.973-1.078-.12-.162-.086-.468.066-.604.07-.06.23-.1 1.697-.41 1.85-.392 2.022-.448 2.308-.75.193-.203.327-.45.935-1.724C7.393 1.63 7.4 1.62 7.62 1.57c.12-.028.283.006.398.082.08.052.232.345.727 1.4.406.866.768 1.6.882 1.783.12.195.31.384.466.463.224.114.672.245 2.007.587 1.644.42 1.616.41 1.7.536.087.13.093.367.012.497-.053.084-.455.53-1.47 1.633-.785.85-.976 1.124-1.068 1.517-.06.256-.042.433.215 2.228.107.75.202 1.472.21 1.603.016.218.012.248-.05.326-.08.102-.227.17-.368.17-.062 0-.23-.064-.428-.162z" fill="#505050" paint-order="fill markers stroke"/><path d="M10.854 14.232c-.18-.088-.718-.366-1.195-.62-1.46-.77-1.715-.877-2.1-.88-.29-.003-.282-.007-1.912.86-1.28.678-1.447.754-1.587.725-.11-.024-.223-.118-.265-.224-.053-.133-.028-.498.127-1.873.17-1.5.21-2.192.14-2.415-.09-.292-.3-.548-1.528-1.89-.49-.535-.925-1.018-.968-1.075-.066-.09-.075-.126-.065-.275.014-.19.082-.312.212-.375.043-.02.46-.12.926-.218 2.612-.554 2.725-.588 3.032-.93.144-.16.487-.823 1.278-2.47.205-.427.412-.82.46-.875.115-.134.265-.17.458-.113.082.024.17.068.196.097.06.068.284.518.727 1.462.838 1.784.98 2.01 1.375 2.19.2.092.924.298 1.89.54 1.288.32 1.65.427 1.725.508.072.076.11.307.076.447-.022.088-.2.295-1.125 1.304-.903.987-.933 1.02-1.134 1.287-.187.248-.293.483-.334.736-.034.21.003.548.227 2.127.107.757.202 1.485.21 1.617.016.22.012.25-.05.327-.08.102-.227.17-.368.17-.062 0-.23-.064-.428-.162z" fill="#505050" paint-order="fill markers stroke"/></svg>