<svg xmlns="http://www.w3.org/2000/svg" viewBox="0 0 42.666666 42.666666" width="16" height="16"><ellipse cx="21.86" cy="20.691" rx="12.679" ry="11.55" transform="matrix(.99956 .02966 -.025 .9997 0 0)" fill="#fff"/><path d="M21.333 7.467c-7.732 0-14 6.208-14 13.866 0 7.658 6.268 13.866 14 13.866s14-6.21 14-13.867c0-7.658-6.268-13.866-14-13.866zm0 3.466c2.266 0 4.35.732 6.067 1.943L12.79 27.34c-1.22-1.7-1.957-3.767-1.957-6.007 0-5.734 4.71-10.4 10.5-10.4zm0 20.8c-2.266 0-4.35-.732-6.067-1.943l14.61-14.463c1.22 1.7 1.957 3.766 1.957 6.006 0 5.734-4.71 10.4-10.5 10.4z" fill="#d80027"/></svg>