<svg xmlns:osb="http://www.openswatchbook.org/uri/2009/osb" xmlns="http://www.w3.org/2000/svg" xmlns:xlink="http://www.w3.org/1999/xlink" viewBox="0 0 559.4932 475.63529" width="16" height="16"><defs><linearGradient id="b" osb:paint="solid"><stop offset="0"/></linearGradient><linearGradient id="a" osb:paint="solid"><stop offset="0"/></linearGradient><linearGradient xlink:href="#a" id="f" x1="21.548" y1="178.37" x2="398.101" y2="178.37" gradientUnits="userSpaceOnUse" gradientTransform="translate(69.937 59.454)"/><linearGradient xlink:href="#b" id="c" y1="256" x2="511.999" y2="256" gradientUnits="userSpaceOnUse"/><linearGradient xlink:href="#b" id="d" gradientUnits="userSpaceOnUse" y1="256" x2="511.999" y2="256"/><linearGradient xlink:href="#b" id="e" gradientUnits="userSpaceOnUse" y1="256" x2="511.999" y2="256"/></defs><g transform="translate(69.937 28.007) scale(.81957)" stroke="url(#c)"><path d="M472.08 81.12c54.11 55.344 53.084 145.433-2.3 200.816L293.442 458.262c-10.254 10.254-23.715 15.368-37.19 15.368-13.46.013-26.923-5.114-37.176-15.368L41.594 280.78C14.776 253.962 0 218.298 0 180.372s14.776-73.59 41.594-100.408c26.83-26.83 62.482-41.594 100.42-41.594 37.914 0 73.578 14.763 100.396 41.594l13.856 13.856 13.843-13.856c26.83-26.83 62.494-41.594 100.42-41.594 38.53 0 74.59 15.184 101.55 42.75zm-20.9 182.23C496.426 218.1 497.373 144.6 453.28 99.5c-21.967-22.467-51.36-34.838-82.753-34.838-30.907 0-59.96 12.028-81.82 33.89l-53.662 53.7c-2.563 2.564-5.93 3.853-9.294 3.853-3.365 0-6.73-1.275-9.294-3.84-5.14-5.14-5.14-13.46 0-18.6l21.23-21.244-13.868-13.868c-21.862-21.862-50.914-33.89-81.807-33.89-30.906 0-59.97 12.028-81.833 33.89-21.848 21.862-33.89 50.914-33.89 81.82 0 30.906 12.042 59.958 33.89 81.82l177.482 177.482c10.254 10.24 26.936 10.24 37.176 0z" stroke="url(#d)"/><path d="M466.297 174.404c.447 7.243-5.074 13.488-12.318 13.935-.277.012-.553.025-.816.025-6.902 0-12.686-5.364-13.12-12.344-1.04-16.97-8.23-32.93-20.232-44.932-8.52-8.52-19.062-14.697-30.485-17.878-6.994-1.946-11.082-9.19-9.136-16.183 1.947-6.994 9.19-11.095 16.184-9.15 15.788 4.404 30.314 12.91 42.027 24.622 16.54 16.537 26.45 38.53 27.897 61.904z" stroke="url(#e)"/></g><path d="M441.435 109.553c36.136 36.965 35.36 97.203-1.724 134.287L295.19 388.352c-8.394 8.393-22.066 8.393-30.47 0l-145.46-145.46c-17.905-17.917-27.775-41.727-27.775-67.057 0-25.33 9.87-49.14 27.776-67.057C137.18 90.86 161 81.003 186.33 81.003c25.318 0 49.128 9.857 67.045 27.775l11.367 11.366-17.4 17.41c-4.213 4.214-4.213 11.034 0 15.246 2.1 2.1 4.86 3.147 7.617 3.147 2.757 0 5.515-1.056 7.616-3.157l43.98-44.012C324.47 90.86 348.28 81.003 373.61 81.003c25.73 0 49.82 10.138 67.823 28.55z" fill="#d40000" stroke="url(#f)" stroke-width=".82"/></svg>