<svg xmlns="http://www.w3.org/2000/svg" viewBox="0 0 110.76923 110.76923" width="16" height="16"><path d="M77.407 13.567c-6.14-4.43-13.85-6.644-23.13-6.644-7.064 0-13.02 1.56-17.865 4.674-7.68 4.88-11.766 13.162-12.258 24.847h17.802c0-3.4.993-6.68 2.98-9.84 1.987-3.158 5.357-4.734 10.11-4.734 4.834 0 8.164 1.28 9.985 3.842 1.824 2.564 2.735 5.404 2.735 8.52 0 2.705-1.36 5.185-2.995 7.44-.9 1.314-2.087 2.522-3.56 3.628 0 0-9.656 6.193-13.894 11.166-2.458 2.887-2.68 7.207-2.896 13.407-.015.44.154 1.35 1.698 1.35h13.846c1.373 0 1.66-1.023 1.68-1.466.096-2.26.35-3.41.76-4.713.78-2.462 2.895-4.613 5.27-6.46l4.9-3.38c4.423-3.446 7.954-6.275 9.51-8.49 2.662-3.647 4.53-8.137 4.53-13.468 0-8.69-3.07-15.25-9.207-19.68zM53.99 81.895c-6.135-.183-11.198 4.06-11.392 10.717-.19 6.653 4.624 11.047 10.76 11.228 6.405.19 11.33-3.917 11.523-10.57.193-6.655-4.483-11.185-10.89-11.375z" fill="#DBDBDB"/></svg>