<svg xmlns="http://www.w3.org/2000/svg" width="16" height="16" viewBox="0 0 102.455 102.455"><path d="M61.977 17.156l-13.7 13.7c-.79.79-2.074.79-2.866 0l-.195-.203V20.568c-16.543 1.156-29.65 14.975-29.65 31.806 0 11.82 6.487 22.617 16.937 28.175 2.632 1.4 3.632 4.67 2.234 7.31-1.403 2.633-4.67 3.632-7.306 2.23C13.447 82.65 4.76 68.2 4.76 52.372c0-22.792 17.953-41.47 40.457-42.64V.79l.197-.2c.792-.79 2.077-.79 2.866 0l13.7 13.697c.793.793.793 2.08 0 2.866zm-7.803 84.704L40.477 88.167c-.792-.79-.792-2.074 0-2.864l13.697-13.695c.79-.794 2.074-.794 2.868 0l.19.198.008 10.082c16.536-1.154 29.65-14.97 29.65-31.803 0-11.82-6.49-22.614-16.94-28.175-2.634-1.4-3.634-4.676-2.233-7.31 1.406-2.636 4.678-3.635 7.312-2.232 13.977 7.44 22.667 21.892 22.667 37.716 0 22.794-17.953 41.47-40.457 42.636v8.942l-.197.198c-.795.792-2.078.792-2.87 0z" fill="#DBDBDB"/></svg>