<svg xmlns="http://www.w3.org/2000/svg" width="15.999" height="16" viewBox="0 0 437.51698 437.59601"><path d="M369.765 0H67.685C30.288 0-.022 30.34-.022 67.778v302.08c0 37.397 30.31 67.738 67.707 67.738h302.08c37.417 0 67.77-30.34 67.77-67.738V67.778C437.535 30.35 407.182 0 369.765 0zM78.548 408.115c-24.217 0-43.878-19.64-43.878-43.88 0-24.238 19.66-43.878 43.88-43.878 24.217 0 43.878 19.64 43.878 43.88 0 24.238-19.67 43.878-43.88 43.878zm146.166 6.503h-56.392c11.05-16.784 17.56-36.885 17.56-58.48 0-58.8-47.646-106.446-106.454-106.446-7.7 0-15.248.88-22.508 2.437v-50.946c7.362-1.085 14.88-1.66 22.507-1.66 86.476 0 156.6 70.155 156.6 156.612.01 20.705-4.034 40.418-11.315 58.48zm165.14 0h-67.91c4.557-18.442 7.035-37.724 7.035-57.6 0-132.32-107.294-239.606-239.626-239.606-10.998 0-21.8.798-32.42 2.243V52.737c10.66-1.116 21.484-1.73 32.42-1.73 169.02 0 305.98 137.04 305.98 306.01-.01 19.703-1.924 38.943-5.477 57.6z" fill="#f60"/></svg>