<svg xmlns="http://www.w3.org/2000/svg" width="16" height="16" viewBox="0 0 92.648 92.648"><g fill="#5D8896"><path d="M0 12.702v67.244h92.648V12.702H0zM32.476 64.22l-.56-3.054h-.19c-1.99 2.43-5.106 3.736-8.722 3.736-6.168 0-9.844-4.48-9.844-9.345 0-7.91 7.104-11.714 17.883-11.65v-.437c0-1.62-.873-3.926-5.546-3.926-3.116 0-6.418 1.06-8.412 2.305l-1.745-6.107c2.12-1.184 6.293-2.68 11.84-2.68 10.156 0 13.396 5.982 13.396 13.148V56.8c0 2.93.123 5.734.436 7.416h-8.536v.003zm41 0l-1.903-7.238h-13.57l-1.955 7.238H46.006l12.17-37.456h12.958l12.32 37.456h-9.98z"/><path d="M65.463 35.42l-1.33.007-4.32 12.994h9.945m-47.25 6.206c0 2.428 1.62 3.613 3.738 3.613 2.368 0 4.3-1.56 4.922-3.49.125-.5.188-1.063.188-1.623v-3.303c-4.985-.06-8.848 1.125-8.848 4.8z"/></g></svg>