<svg xmlns="http://www.w3.org/2000/svg" width="16" height="16" viewBox="0 0 94 94"><g fill="#5D8896"><path d="M32.697 36.083l-1.352.008-4.38 13.185h10.09m25.213 6.295c0 2.465 1.645 3.665 3.793 3.665 2.405 0 4.364-1.58 4.996-3.54.127-.507.19-1.074.19-1.644V50.7c-5.057-.06-8.977 1.142-8.977 4.872z"/><path d="M0 12.887v68.227h94V12.887H0zm40.826 52.418l-1.93-7.346h-13.77l-1.983 7.344H12.956l12.347-38.002H38.45l12.502 38.002H40.826zm31.557 0l-.568-3.098h-.19C69.603 64.674 66.442 66 62.775 66c-6.26 0-9.988-4.55-9.988-9.482 0-8.03 7.206-11.887 18.144-11.822v-.443c0-1.643-.885-3.982-5.626-3.982-3.16 0-6.512 1.078-8.535 2.34L55 36.418c2.147-1.2 6.384-2.72 12.01-2.72 10.306 0 13.593 6.07 13.593 13.34v10.748c0 2.97.125 5.815.442 7.522h-8.66z"/></g></svg>