<svg xmlns="http://www.w3.org/2000/svg" width="16" height="16" viewBox="0 0 512 512"><path fill="#808080" d="M459.232 60.687h-71.955c-1.12-17.642-15.63-31.657-33.553-31.657H161.67c-17.922 0-32.442 14.015-33.554 31.657H64.58c-18.648 0-33.768 15.12-33.768 33.768v8.442c0 18.648 15.12 33.768 33.767 33.768h21.04v342.113c0 13.784 11.178 24.963 24.962 24.963h308.996c13.784 0 24.964-11.178 24.964-24.962V136.665h14.69c18.664 0 33.77-15.12 33.77-33.768v-8.442c-.002-18.648-15.106-33.768-33.77-33.768zM196.674 443.725c0 12.58-10.197 22.803-22.802 22.803-12.598 0-22.803-10.223-22.803-22.803v-284.9c0-12.597 10.204-22.802 22.802-22.802 12.605 0 22.802 10.206 22.802 22.802v284.9zm91.213 0c0 12.58-10.205 22.803-22.803 22.803s-22.803-10.223-22.803-22.803v-284.9c0-12.597 10.206-22.802 22.804-22.802s22.803 10.206 22.803 22.802v284.9zm91.212 0c0 12.58-10.206 22.803-22.804 22.803-12.613 0-22.803-10.223-22.803-22.803v-284.9c0-12.597 10.19-22.802 22.803-22.802 12.598 0 22.803 10.206 22.803 22.802v284.9z"/></svg>