<svg xmlns="http://www.w3.org/2000/svg" viewBox="0 0 512 512" width="16" height="16"><path d="M470.693 367.957L312.435 77.04c-25.427-42.806-87.41-42.863-112.87 0L41.315 367.957c-25.992 43.74 5.478 99.13 56.423 99.13h316.52c50.9 0 82.427-55.345 56.434-99.13zM256 414.587c-14.47 0-26.25-11.78-26.25-26.25s11.78-26.25 26.25-26.25 26.25 11.78 26.25 26.25-11.78 26.25-26.25 26.25zm26.25-105.002c0 14.473-11.78 26.25-26.25 26.25s-26.25-11.777-26.25-26.25v-131.25c0-14.47 11.78-26.25 26.25-26.25s26.25 11.78 26.25 26.25z" fill="#ffda44"/></svg>