<svg xmlns:osb="http://www.openswatchbook.org/uri/2009/osb" xmlns="http://www.w3.org/2000/svg" xmlns:xlink="http://www.w3.org/1999/xlink" viewBox="0 0 682.66666 682.66666" width="16" height="16"><defs><linearGradient id="a" osb:paint="solid"><stop offset="0"/></linearGradient><linearGradient xlink:href="#a" id="b" x1="232.651" y1="286.97" x2="279.971" y2="286.97" gradientUnits="userSpaceOnUse" gradientTransform="translate(85.334 85.333)"/></defs><path d="M341.458 136.316l247.198 390.51L334.95 542.01h1.084l-231.175-9.76 5.423-31.46z" fill="#fff"/><path d="M590.737 491.727L380.724 143.435c-8.275-13.72-23.368-22.245-39.39-22.245-16.024 0-31.117 8.524-39.392 22.246L91.93 491.726c-8.55 14.183-8.805 31.95-.66 46.37 8.143 14.42 23.49 23.38 40.05 23.38h420.027c16.56 0 31.907-8.96 40.052-23.38 8.142-14.42 7.89-32.19-.663-46.37zm-28.364 29.978c-2.243 3.97-6.468 6.436-11.027 6.436H131.32c-4.56 0-8.785-2.465-11.026-6.434-2.242-3.97-2.172-8.862.18-12.765L330.49 160.65c2.28-3.778 6.434-6.125 10.845-6.125 4.41 0 8.565 2.347 10.843 6.124L562.19 508.94c2.356 3.905 2.426 8.796.184 12.765z" fill="#d80027"/><path d="M341.488 258.338c-12.68 0-22.576 6.804-22.576 18.866 0 36.803 4.33 89.687 4.33 126.49 0 9.587 8.35 13.607 18.247 13.607 7.42 0 17.936-4.02 17.936-13.606 0-36.802 4.33-89.686 4.33-126.49 0-12.06-10.206-18.865-22.268-18.865zm.31 180.3c-13.606 0-23.813 10.825-23.813 23.815 0 12.68 10.207 23.814 23.815 23.814 12.68 0 23.505-11.134 23.505-23.814 0-12.99-10.826-23.814-23.505-23.814z" stroke="url(#b)" stroke-width="9.515"/></svg>