<svg xmlns="http://www.w3.org/2000/svg" width="16" height="16" viewBox="0 0 512 512"><path d="M12.85 252.375C167.29 78.018 329.38 78.44 499.14 253.9 313.6 463.085 157.86 405.945 12.85 252.376zM256 223.898c-20.347 0-37.007 14.46-37.007 32.215 0 17.52 16.66 31.938 37.007 31.938 20.603 0 37.243-14.417 37.243-31.937 0-17.756-16.64-32.215-37.243-32.215zm0-37.233c-42.476 0-77.107 31.12-77.107 69.458 0 38.082 34.63 69.202 77.107 69.202 42.526 0 77.127-31.12 77.127-69.202-.01-38.34-34.61-69.458-77.127-69.458z" fill="red"/></svg>