<svg xmlns="http://www.w3.org/2000/svg" viewBox="0 0 16 21" width="16" height="21"><path d="M10.33 17.667H5.532c-.368 0-.614-.246-.614-.617 0-.37.245-.617.613-.617h4.796c.368 0 .614.247.614.617s-.246.617-.615.617z" fill="#DBDBDB"/><path d="M14.51 21H1.476C.738 21 0 20.383 0 19.52v-1.606c0-.74.615-1.48 1.476-1.48h.368c.37-2.223 1.845-4.198 2.952-5.68l.123-.246-.124-.246C3.69 8.78 2.213 6.806 1.844 4.584h-.368C.738 4.584 0 3.967 0 3.104V1.497C0 .758.615.018 1.476.018h13.157c.738 0 1.475.616 1.475 1.48v1.605c0 .74-.614 1.48-1.475 1.48h-.492c-.368 2.223-1.843 4.197-2.95 5.68l-.123.245.123.247c1.107 1.48 2.582 3.456 2.95 5.678h.37c.738 0 1.476.617 1.476 1.48v1.606c0 .863-.615 1.48-1.476 1.48zM1.476 17.667c-.123 0-.246.124-.246.247v1.605c0 .122.123.246.246.246h13.157c.123 0 .246-.124.246-.247v-1.606c0-.123-.124-.247-.247-.247h-.86c-.37 0-.616-.246-.616-.617-.123-2.22-1.72-4.196-2.705-5.678l-.492-.617c-.123-.247-.123-.493 0-.74l.492-.617c1.107-1.482 2.582-3.456 2.705-5.678 0-.37.246-.617.615-.617h.86c.124 0 .247-.124.247-.247V1.25c0-.122-.124-.246-.247-.246H1.476c-.123 0-.246.124-.246.247v1.853c0 .123.123.247.246.247h.86c.37 0 .615.246.615.617.124 2.22 1.723 4.196 2.706 5.677l.492.618c.123.246.123.493 0 .74l-.492.617C4.55 13.1 3.074 15.074 2.95 17.296c0 .37-.245.617-.614.617h-.86z" fill="#DBDBDB"/></svg>