<svg xmlns="http://www.w3.org/2000/svg" viewBox="0 0 16 20" width="16" height="20"><path d="M13.002 20H3.096C1.362 20 0 18.71 0 17.066V2.98C0 1.34 1.362.048 3.096.048h4.457c.496 0 .99.234 1.363.47l6.686 6.337c.372.352.495.822.495 1.29v8.922c0 1.643-1.362 2.934-3.095 2.934zM3.096 1.22c-.99 0-1.858.822-1.858 1.76v14.086c0 .94.867 1.76 1.858 1.76h9.906c.99 0 1.857-.82 1.857-1.76v-8.92c0-.118-.125-.353-.125-.47L8.05 1.338c-.125-.118-.25-.118-.497-.118z" fill="#DBDBDB"/><path d="M7 3.5v4C7 8.3 7.7 9 8.5 9h4v1h-4C7.1 10 6 8.9 6 7.5v-4z" fill="#DBDBDB"/></svg>