<svg xmlns="http://www.w3.org/2000/svg" viewBox="0 0 13 17" width="13" height="17"><path d="M10.5 17h-8C1.1 17 0 15.9 0 14.5v-12C0 1.1 1.1 0 2.5 0h3.6c.4 0 .8.2 1.1.4l5.4 5.4c.3.3.4.7.4 1.1v7.6c0 1.4-1.1 2.5-2.5 2.5zm-8-16C1.7 1 1 1.7 1 2.5v12c0 .8.7 1.5 1.5 1.5h8c.8 0 1.5-.7 1.5-1.5V6.9c0-.1-.1-.3-.1-.4L6.5 1.1C6.4 1 6.3 1 6.1 1z" fill="#DBDBDB"/><path d="M12.5 7h-4C7.1 7 6 5.9 6 4.5v-4c0-.3.2-.5.5-.5s.5.2.5.5v4C7 5.3 7.7 6 8.5 6h4c.3 0 .5.2.5.5s-.2.5-.5.5z" fill="#DBDBDB"/><g><path d="M5.7 13.3c-.4 0-.7-.1-.9-.4l-1.1-1.1c-.2-.2-.2-.5 0-.7.2-.2.5-.2.7 0l1.1 1.1c.1.1.2.1.2.1.1 0 .2 0 .2-.1l2.7-2.7c.2-.2.5-.2.7 0 .2.2.2.5 0 .7l-2.7 2.7c-.2.2-.5.4-.9.4z" fill="#DBDBDB"/></g></svg>