<svg xmlns="http://www.w3.org/2000/svg" viewBox="0 0 15.4 15.725" width="15.4" height="15.725"><g fill="#DBDBDB"><path d="M14.3 9.325l-1 4.4c-.3 1.2-1.3 2-2.5 2H4.5c-1.2 0-2.3-.8-2.5-2l-1-4.4 1-.2 1 4.4c.2.7.8 1.2 1.5 1.2h6.3c.7 0 1.4-.5 1.5-1.2l1-4.4z"/><path d="M4.3 15.325l-.6-4.2c0-.3.2-.5.4-.6.3 0 .5.2.6.4l.6 4.2zM8.2 15.225l.2-4.2c0-.3.2-.5.5-.5s.5.2.5.5l-.2 4.2zM10.1 15.225l.6-4.3c0-.3.3-.5.6-.4.3 0 .5.3.4.6l-.6 4.2zM6.2 15.325l-.2-4.2c0-.3.2-.5.5-.5s.5.2.5.5l.2 4.2z"/><g><path d="M7.7 10.025c-6.5 0-7.7 0-7.7-3.1 0-1.5 1.3-2.2 2.8-3 1.4-.8 3.2-1.7 4.5-3.7.2-.3.7-.3.8 0 1.3 2 3.1 2.9 4.5 3.7 1.5.8 2.8 1.5 2.8 3 0 3.1-1.2 3.1-7.7 3.1zm0-8.6c-1.4 1.8-3.1 2.7-4.5 3.4-1.5.8-2.3 1.2-2.3 2.1 0 2 0 2.1 6.7 2.1s6.7-.1 6.7-2.1c0-.9-.8-1.3-2.3-2.1-1.2-.7-2.9-1.6-4.3-3.4z"/></g><g><path d="M15 7.925c-.4.4-1.1.6-1.9.5-4.3-.3-5.4-4.6-5.7-6.7-.9 1.1-2.4 3-2.3 4.5 0 .5.2 1 .6 1.3 1.6 1.5 4.8 1.5 4.8 1.5.3 0 .5.2.5.5s-.2.5-.5.5c-.1 0-3.7 0-5.5-1.8-.6-.5-.9-1.2-.9-2 0-2.7 3.2-5.9 3.4-6 .1-.1.4-.2.5-.1.2.1.3.3.3.5 0 .3.2 6.5 4.9 6.8.5 0 1 0 1.2-.2.1-.1.1-.2.1-.2 0-.3.2-.5.5-.5z"/></g></g></svg>