<svg xmlns="http://www.w3.org/2000/svg" viewBox="0 0 17 16" width="17" height="16"><path d="M4.7 14.1H2.2c-.3 0-.5-.2-.5-.5s.2-.5.5-.5h2.5c.3 0 .5.2.5.5s-.2.5-.5.5zM6.4 16H.5c-.3 0-.5-.2-.5-.5s.2-.5.5-.5h5.9c.3 0 .5.2.5.5s-.3.5-.5.5z" fill="#DBDBDB"/><path d="M4 13.6V8.2c.5-.2 1.5-.7 2.8-.7 1.7 0 3 .8 3 .8.1 0 1.6.9 3.5.9s3.5-.9 3.5-.9c.1-.1.2-.2.2-.3 0-.1 0-.3-.1-.4l-1.7-2.4 1.7-3.6c.1-.2 0-.4-.1-.6-.2-.1-.4-.2-.6-.1 0 0-1.3.8-3 .8s-3-.8-3-.8C10.1.9 8.6 0 6.7 0S3.2.9 3.2.9c-.1.1-.2.3-.2.4v12.2h1zm9.2-5.4c-1.7 0-3-.8-3-.8-.1 0-1.6-.9-3.5-.9-1.1 0-2.1.3-2.8.6V1.7c.5-.2 1.5-.7 2.8-.7 1.7 0 3 .8 3 .8.1 0 1.6.9 3.5.9.9 0 1.6-.2 2.2-.4L14.2 5c-.1.2-.1.4 0 .5l1.5 2.2c-.5.2-1.4.5-2.5.5z" fill="#DBDBDB"/></svg>