<svg xmlns="http://www.w3.org/2000/svg" id="svg8" viewBox="0 0 126.63 22.682"><defs id="defs2"><filter id="filter7416" color-interpolation-filters="sRGB"><feFlood id="feFlood7406" result="flood" flood-color="#000" flood-opacity=".667"/><feComposite id="feComposite7408" result="composite1" operator="out" in2="SourceGraphic" in="flood"/><feGaussianBlur id="feGaussianBlur7410" result="blur" stdDeviation=".6" in="composite1"/><feOffset id="feOffset7412" result="offset" dy="1.2" dx="-1.6"/><feComposite id="feComposite7414" result="composite2" operator="atop" in2="SourceGraphic" in="offset"/></filter><filter id="filter7428" color-interpolation-filters="sRGB"><feFlood id="feFlood7418" result="flood" flood-color="#000" flood-opacity=".667"/><feComposite id="feComposite7420" result="composite1" operator="out" in2="SourceGraphic" in="flood"/><feGaussianBlur id="feGaussianBlur7422" result="blur" stdDeviation=".6" in="composite1"/><feOffset id="feOffset7424" result="offset" dy="1.2" dx="-1.6"/><feComposite id="feComposite7426" result="composite2" operator="atop" in2="SourceGraphic" in="offset"/></filter><filter id="filter7440" color-interpolation-filters="sRGB"><feFlood id="feFlood7430" result="flood" flood-color="#000" flood-opacity=".667"/><feComposite id="feComposite7432" result="composite1" operator="out" in2="SourceGraphic" in="flood"/><feGaussianBlur id="feGaussianBlur7434" result="blur" stdDeviation=".6" in="composite1"/><feOffset id="feOffset7436" result="offset" dy="1.2" dx="-1.6"/><feComposite id="feComposite7438" result="composite2" operator="atop" in2="SourceGraphic" in="offset"/></filter><filter id="filter7452" color-interpolation-filters="sRGB"><feFlood id="feFlood7442" result="flood" flood-color="#000" flood-opacity=".667"/><feComposite id="feComposite7444" result="composite1" operator="out" in2="SourceGraphic" in="flood"/><feGaussianBlur id="feGaussianBlur7446" result="blur" stdDeviation=".6" in="composite1"/><feOffset id="feOffset7448" result="offset" dy="1.2" dx="-1.6"/><feComposite id="feComposite7450" result="composite2" operator="atop" in2="SourceGraphic" in="offset"/></filter><filter id="filter7464" color-interpolation-filters="sRGB"><feFlood id="feFlood7454" result="flood" flood-color="#000" flood-opacity=".667"/><feComposite id="feComposite7456" result="composite1" operator="out" in2="SourceGraphic" in="flood"/><feGaussianBlur id="feGaussianBlur7458" result="blur" stdDeviation=".6" in="composite1"/><feOffset id="feOffset7460" result="offset" dy="1.2" dx="-1.6"/><feComposite id="feComposite7462" result="composite2" operator="atop" in2="SourceGraphic" in="offset"/></filter><filter id="filter7476" color-interpolation-filters="sRGB"><feFlood id="feFlood7466" result="flood" flood-color="#000" flood-opacity=".667"/><feComposite id="feComposite7468" result="composite1" operator="out" in2="SourceGraphic" in="flood"/><feGaussianBlur id="feGaussianBlur7470" result="blur" stdDeviation=".6" in="composite1"/><feOffset id="feOffset7472" result="offset" dy="1.2" dx="-1.6"/><feComposite id="feComposite7474" result="composite2" operator="atop" in2="SourceGraphic" in="offset"/></filter><filter id="filter7488" color-interpolation-filters="sRGB"><feFlood id="feFlood7478" result="flood" flood-color="#000" flood-opacity=".667"/><feComposite id="feComposite7480" result="composite1" operator="out" in2="SourceGraphic" in="flood"/><feGaussianBlur id="feGaussianBlur7482" result="blur" stdDeviation=".6" in="composite1"/><feOffset id="feOffset7484" result="offset" dy="1.2" dx="-1.6"/><feComposite id="feComposite7486" result="composite2" operator="atop" in2="SourceGraphic" in="offset"/></filter></defs><g id="layer1"><g id="g30" fill="#cdcdcd"><path id="path12" d="M2.275 7.738c.16 0 .344 0 .503.027.132.026.238.053.37.105.106.053.212.133.292.24.105.13.21.237.317.37l4.71 6.217c.026.053.105.106.158.08h.106c.06 0 .11-.054.11-.107V8.03c-.02-.133.08-.265.21-.292h1.4c.14-.026.27.08.3.212v7.382c0 .53-.1.873-.29 1.058-.24.185-.55.29-.87.265H8.5c-.16 0-.317 0-.476-.027-.106-.026-.24-.053-.344-.106-.107-.053-.213-.132-.29-.21-.134-.134-.24-.266-.346-.398L2.3 9.67c-.053-.053-.106-.08-.16-.08h-.13c-.054 0-.107.053-.107.106v6.667c.026.133-.08.265-.212.292H.29c-.13 0-.264-.08-.29-.238V9.06c0-.528.106-.872.29-1.057.24-.185.557-.29.874-.265z" class="st0"/><path id="path14" d="M18.89 9.67c.372 0 .716.026 1.086.105.265.053.503.186.688.37.185.186.29.398.344.662.08.318.106.635.106.98v1.216c.026.212-.053.424-.185.556-.16.1-.35.18-.56.15h-6.43v.31c-.03.32.08.63.29.87.18.18.55.26 1.11.26h5.29c.1-.03.21.05.24.18v1.11c.02.1-.06.21-.16.23h-5.55c-.48 0-.98-.03-1.46-.14-.35-.08-.66-.21-.93-.45-.24-.21-.43-.474-.51-.79-.11-.37-.16-.77-.16-1.19v-1.85c0-.4.05-.797.16-1.194.08-.32.26-.58.5-.795.26-.215.58-.37.92-.45.47-.11.95-.16 1.45-.135zm-4.946 2.884h5.16c.105.026.21-.053.237-.16v-.608c.03-.21-.05-.397-.15-.555-.18-.13-.39-.18-.63-.15h-3.2c-.55 0-.92.08-1.11.27-.21.24-.31.56-.29.88z" class="st0"/><path id="path16" d="M23.945 7.103c.132-.026.264.08.29.212V9.67H29c.477 0 .953.026 1.43.132.343.08.66.238.925.45.238.21.423.476.503.793.106.37.16.768.16 1.19v1.827c0 .397-.054.793-.16 1.19-.08.318-.265.582-.503.794-.264.238-.582.37-.926.45-.48.106-.96.16-1.43.132h-3.55c-.48 0-.98-.026-1.46-.132-.35-.08-.67-.238-.93-.45-.24-.212-.43-.476-.5-.794-.11-.37-.16-.767-.16-1.19V7.394c0-.132.1-.264.24-.29h1.29zm.29 4.075v2.54c0 .238.027.45.054.66.02.16.1.32.21.45.1.107.26.186.42.24.21.052.45.08.69.08h3.2c.24 0 .45-.028.69-.08.16-.027.31-.107.42-.24.1-.105.18-.264.21-.422.05-.212.08-.45.05-.662v-1.137c0-.212-.03-.45-.06-.662-.03-.16-.11-.317-.21-.423-.11-.106-.27-.185-.43-.238-.24-.053-.45-.08-.69-.08.03-.026-4.58-.026-4.58-.026z" class="st0"/><path id="path18" d="M35.03 9.67c.16 0 .265.105.292.238v3.73c0 .24 0 .45.053.663.026.16.08.29.185.43.106.11.238.19.397.24.212.06.45.08.688.08h3.28c.24 0 .45-.02.69-.08.157-.02.316-.1.422-.23.106-.1.185-.26.212-.42.05-.21.07-.45.05-.66v-3.7c-.03-.13.08-.26.24-.29h1.29c.16 0 .26.11.29.24v4.18c0 .4-.05.8-.16 1.19-.08.32-.27.59-.5.8-.27.24-.58.37-.93.45-.48.11-.96.16-1.43.13h-3.6c-.48 0-.98-.02-1.46-.13-.35-.08-.66-.24-.93-.45-.24-.21-.42-.47-.5-.79-.11-.37-.16-.76-.16-1.19V9.96c-.03-.132.08-.264.24-.29z" class="st0"/><path id="path20" d="M46.223 7.103c.132-.026.264.08.29.212v9.075c.027.132-.08.265-.21.29H44.98c-.134.028-.266-.078-.293-.21V7.393c-.026-.132.08-.264.212-.29h.08z" class="st0"/><path id="path22" d="M53.763 9.67c.477 0 .953.053 1.43.132.343.08.66.238.925.45.238.21.423.476.503.793.11.37.16.768.16 1.19v3.388c0 .16 0 .344-.05.502-.02.106-.08.212-.16.318-.08.08-.18.132-.29.16-.16.025-.29.052-.45.052h-6.06c-.31 0-.63-.027-.92-.106-.21-.06-.42-.16-.61-.32-.16-.16-.26-.35-.32-.56-.08-.27-.1-.53-.1-.82v-.61c0-.24.03-.48.11-.72.06-.21.19-.4.32-.53.19-.16.37-.27.61-.32.32-.08.61-.11.93-.11h5.19v-.24c0-.19-.02-.35-.05-.53-.02-.13-.1-.27-.21-.34-.13-.11-.26-.16-.42-.22-.24-.06-.45-.08-.69-.06h-5.32c-.1.02-.21-.06-.23-.16v-1.1c-.02-.11.06-.21.19-.24h5.55zm.847 5.582c.106 0 .212-.026.29-.105.054-.106.107-.212.08-.344v-1.138h-4.656c-.185-.027-.397.026-.556.16-.106.13-.16.29-.16.475v.264c-.025.186.054.37.16.503.16.132.344.185.556.16z" class="st0"/><path id="path24" d="M64.796 9.67c.477 0 .953.053 1.43.132.343.08.66.238.925.45.24.21.43.476.51.793.11.37.16.768.16 1.19v4.13c.03.13-.08.263-.21.29h-1.3c-.13.026-.26-.08-.29-.212v-3.757c0-.212-.03-.45-.05-.662-.02-.158-.08-.317-.21-.423-.1-.1-.24-.18-.4-.23-.21-.05-.45-.08-.66-.08h-3.39c-.24 0-.45.03-.69.08-.16.03-.31.11-.42.24-.1.14-.18.27-.21.43-.05.21-.08.45-.05.66v3.68c.03.13-.08.27-.21.29H58.4c-.134.03-.266-.08-.293-.24v-4.18c0-.39.053-.79.16-1.19.08-.32.264-.58.502-.79.26-.23.58-.39.92-.47.47-.1.95-.16 1.45-.13z" class="st0"/><path id="path26" d="M77.232 9.67c.106-.027.212.053.238.185v1.11c.026.107-.053.213-.16.24h-4.97c-.24 0-.45.026-.69.08-.158.025-.316.104-.422.237-.106.132-.185.264-.212.45-.053.21-.08.45-.053.66v1.14c0 .237.028.448.054.66.027.16.106.318.212.423.1.106.26.186.42.24.23.052.45.078.68.078h4.92c.1-.026.21.053.24.185v1.113c.02.11-.06.21-.16.24h-5.18c-.48 0-.98-.02-1.46-.13-.35-.08-.67-.24-.93-.45-.24-.21-.43-.47-.51-.79-.11-.37-.16-.77-.16-1.19v-1.83c0-.39.05-.79.16-1.19.08-.32.26-.58.5-.79.26-.23.58-.39.92-.47.47-.1.95-.16 1.45-.13z" class="st0"/><path id="path28" d="M85.17 9.67c.37 0 .714.026 1.084.105.265.053.476.186.662.344.185.18.29.39.344.66.08.31.105.63.105.98v1.21c.027.21-.053.42-.185.55-.16.1-.344.18-.555.16h-6.43V14c-.026.315.08.633.29.87.186.186.557.266 1.112.266h5.32c.104-.027.21.052.237.185v1.11c.026.11-.053.22-.16.24h-5.53c-.475 0-.98-.02-1.454-.13-.344-.08-.66-.24-.926-.45-.238-.21-.423-.47-.503-.79-.1-.37-.15-.76-.15-1.19v-1.82c0-.4.06-.79.16-1.19.08-.31.27-.58.5-.79.27-.23.58-.39.93-.47.48-.1.96-.16 1.46-.13zm-4.975 2.884h5.16c.105.026.21-.053.21-.16v-.58c.028-.21-.052-.397-.158-.556-.185-.132-.396-.185-.608-.16h-3.21c-.56 0-.93.08-1.11.266-.22.238-.32.556-.3.873z" class="st0"/></g><g id="g81" transform="translate(0 .012) scale(.26458)"><linearGradient id="SVGID_1_" x1="435.354" x2="435.354" y1="84.328" y2="2.697" gradientUnits="userSpaceOnUse"><stop id="stop32" offset="0" stop-color="#2C4B87"/><stop id="stop34" offset="1" stop-color="#6786C2"/></linearGradient><path id="path37" fill="url(#SVGID_1_)" d="M450.8 30.2c12.4 3.8 16.8 20.2 7.8 30l-3.8-6.2c-1.7 8.2-5.5 14.5-13.5 17.5-4.6 1.7-9.1 1.5-14.2-.4l5.3-6.2c-17.2.2-26.1-7.3-24.8-20.6l7.7 3.1c-4.7-8.4-4.9-16.1.7-23.4 2.7-3.5 6.6-5.9 10.9-6.6l-.6 8.1c6.2-6.4 12.9-9.1 20.8-6.9 4.7 1.2 8.8 4.3 11.1 8.6-1.9.5-3.5.8-5.1 1.4-.8.4-1.5 1-2.1 1.7-5.7-5-12-7.7-19.8-5.9-10.3 2.4-16.9 12.3-15.4 23.1 1.4 9.9 11 17.5 21.2 16.8 10.5-.6 18.8-9.2 19.1-19.7.1-5.6-2.2-10.1-5.3-14.4z" class="st1" filter="url(#filter7464)"/><linearGradient id="SVGID_2_" x1="402.185" x2="402.185" y1="84.328" y2="2.697" gradientUnits="userSpaceOnUse"><stop id="stop39" offset="0" stop-color="#2C4B87"/><stop id="stop41" offset="1" stop-color="#6786C2"/></linearGradient><path id="path44" fill="url(#SVGID_2_)" d="M396 25.6c2.6 3.1 4.9 5.8 7.2 8.7.4.7.5 1.5.3 2.3-2.5 11.9.8 22.2 9.1 30.9-6.3-.4-14.5-7.5-18.1-15.6-3.9-8.9-3.5-17.5 1.5-26.3z" class="st2" filter="url(#filter7476)"/><linearGradient id="SVGID_3_" x1="428.575" x2="428.575" y1="84.328" y2="2.697" gradientUnits="userSpaceOnUse"><stop id="stop46" offset="0" stop-color="#2C4B87"/><stop id="stop48" offset="1" stop-color="#6786C2"/></linearGradient><path id="path51" fill="url(#SVGID_3_)" d="M451.1 73.3c-8.4 13.7-31.6 18-45.1 2.7 3.6-1.4 7.1-2.9 10.7-4.2.7-.1 1.4 0 2 .4 10.4 6.1 21.3 6.1 32.4 1.1z" class="st3" filter="url(#filter7416)"/><linearGradient id="SVGID_4_" x1="465.5" x2="465.5" y1="84.328" y2="2.697" gradientUnits="userSpaceOnUse"><stop id="stop53" offset="0" stop-color="#2C4B87"/><stop id="stop55" offset="1" stop-color="#6786C2"/></linearGradient><path id="path58" fill="url(#SVGID_4_)" d="M468.5 38.3c11.8 14.2 5.3 37.6-11.3 43.5-.2-3.6-.5-7.1-.6-10.6 0-.9.4-1.7 1-2.4 8.8-8.1 12.4-18.1 10.9-30.5z" class="st4" filter="url(#filter7428)"/><linearGradient id="SVGID_5_" x1="459.4" x2="459.4" y1="84.328" y2="2.697" gradientUnits="userSpaceOnUse"><stop id="stop60" offset="0" stop-color="#2C4B87"/><stop id="stop62" offset="1" stop-color="#6786C2"/></linearGradient><path id="path65" fill="url(#SVGID_5_)" d="M478.6 35.4c-3.9-1-7.4-1.8-10.8-2.8-.7-.3-1.2-.8-1.5-1.4-5.1-11.2-13.9-17.6-26-20 16.9-6.7 36.7 5.7 38.3 24.2z" class="st5" filter="url(#filter7440)"/><linearGradient id="SVGID_6_" x1="423.206" x2="423.206" y1="84.328" y2="2.697" gradientUnits="userSpaceOnUse"><stop id="stop67" offset="0" stop-color="#2C4B87"/><stop id="stop69" offset="1" stop-color="#6786C2"/></linearGradient><path id="path72" fill="url(#SVGID_6_)" d="M405.8 29.5C404.5 11.7 423.2-3.9 440.6.8c-2 3.2-4 6.4-6 9.4-.6.6-1.3.9-2.1.9-11.7 1.4-20.3 7.3-26 17.6-.2.3-.4.6-.7.8z" class="st6" filter="url(#filter7488)"/><linearGradient id="SVGID_7_" x1="435.47" x2="435.47" y1="84.328" y2="2.697" gradientUnits="userSpaceOnUse"><stop id="stop74" offset="0" stop-color="#2C4B87"/><stop id="stop76" offset="1" stop-color="#6786C2"/></linearGradient><path id="path79" fill="url(#SVGID_7_)" d="M435.7 29.2c8.4.2 15.1 7.1 14.9 15.6-.2 7.9-6.3 14.4-14.2 14.9h-.5c-8.5.2-15.5-6.6-15.6-15.1v-.1c-.1-8.4 6.6-15.2 15-15.3z" class="st7" filter="url(#filter7452)"/></g></g><style id="style10">.st0{fill:#CDCDCD;} .st1{fill:url(#SVGID_1_);} .st2{fill:url(#SVGID_2_);} .st3{fill:url(#SVGID_3_);} .st4{fill:url(#SVGID_4_);} .st5{fill:url(#SVGID_5_);} .st6{fill:url(#SVGID_6_);} .st7{fill:url(#SVGID_7_);}</style></svg>