<?xml version="1.0" encoding="UTF-8" standalone="no"?>
<svg
   xmlns:dc="http://purl.org/dc/elements/1.1/"
   xmlns:cc="http://creativecommons.org/ns#"
   xmlns:rdf="http://www.w3.org/1999/02/22-rdf-syntax-ns#"
   xmlns:svg="http://www.w3.org/2000/svg"
   xmlns="http://www.w3.org/2000/svg"
   xmlns:sodipodi="http://sodipodi.sourceforge.net/DTD/sodipodi-0.dtd"
   xmlns:inkscape="http://www.inkscape.org/namespaces/inkscape"
   viewBox="0 0 512 512"
   width="17"
   height="17"
   version="1.1"
   id="svg6"
   sodipodi:docname="read.svg"
   inkscape:version="0.92.2 (5c3e80d, 2017-08-06)">
  <metadata
     id="metadata12">
    <rdf:RDF>
      <cc:Work
         rdf:about="">
        <dc:format>image/svg+xml</dc:format>
        <dc:type
           rdf:resource="http://purl.org/dc/dcmitype/StillImage" />
        <dc:title></dc:title>
      </cc:Work>
    </rdf:RDF>
  </metadata>
  <defs
     id="defs10" />
  <sodipodi:namedview
     pagecolor="#ffffff"
     bordercolor="#666666"
     borderopacity="1"
     objecttolerance="10"
     gridtolerance="10"
     guidetolerance="10"
     inkscape:pageopacity="0"
     inkscape:pageshadow="2"
     inkscape:window-width="1920"
     inkscape:window-height="1017"
     id="namedview8"
     showgrid="false"
     inkscape:zoom="13.882353"
     inkscape:cx="8.5"
     inkscape:cy="14.262712"
     inkscape:window-x="-8"
     inkscape:window-y="-8"
     inkscape:window-maximized="1"
     inkscape:current-layer="svg6" />
  <path
     d="m 481.53646,204.47003 c -0.002,-0.6794 -0.15352,-1.7047 -0.41734,-2.29587 -0.69442,-2.51823 -2.23765,-4.81764 -4.54765,-6.42352 l -64.66928,-44.95579 v -48.18873 c 0,-6.388219 -5.1794,-11.569389 -11.56763,-11.569389 h -74.39985 l -63.30252,-44.00903 c -3.95647,-2.752935 -9.2091,-2.765288 -13.17792,-0.02294 l -63.71194,44.03021 h -74.07337 c -6.38999,0 -11.5694,5.18205 -11.5694,11.570269 v 47.62314 l -64.983397,44.91167 c -3.196758,2.2103 -4.926167,5.74235 -4.980873,9.35292 -0.0026,0.0688 -0.01764,0.13236 -0.01764,0.20294 l 0.344117,250.79599 c 0.0053,3.06794 1.228233,6.00881 3.399699,8.17587 2.16882,2.16175 5.107049,3.37675 8.170573,3.37675 h 0.01588 L 470.32884,466.456 c 6.38823,-0.008 11.56233,-5.19705 11.5535,-11.58528 l -0.34411,-250.3998 z m -69.63516,-25.49288 36.96875,25.6923 -36.96875,25.70112 z M 256.01191,70.603244 285.40302,91.034971 H 226.45137 Z M 123.23835,114.17374 H 388.76253 V 246.4576 l -89.14924,61.97812 -36.34758,-28.19466 c -0.0564,-0.0442 -0.10588,-0.0706 -0.15882,-0.11118 -4.06323,-3.04763 -9.8091,-3.15881 -14.02497,0.11118 l -36.60963,28.39936 -89.23218,-61.67106 V 114.17551 Z m -23.13879,64.18223 v 52.62342 L 62.02964,204.66769 Z M 53.285539,226.7644 193.28821,323.51862 53.567892,431.89253 53.285539,226.76352 Z M 75.88873,443.86075 256.17514,304.02043 435.81302,443.36398 75.88873,443.85809 Z M 318.77355,323.29628 458.42769,226.20764 458.71003,431.84842 318.77267,323.29628 Z"
     id="path2"
     inkscape:connector-curvature="0"
     style="fill:#dbdbdb;stroke-width:0.99999994" />
  <path
     d="M 334.32456,214.35038 H 177.67545 c -6.38822,0 -11.56939,5.18116 -11.56939,11.56938 0,6.38822 5.18117,11.56939 11.56939,11.56939 h 156.64911 c 6.38999,0 11.56938,-5.18117 11.56938,-11.56939 0,-6.38822 -5.17939,-11.56938 -11.56938,-11.56938 z m 0,60.16047 H 177.67545 c -6.38822,0 -11.56939,5.18117 -11.56939,11.56938 0,6.38823 5.18117,11.5694 11.56939,11.5694 h 156.64911 c 6.38999,0 11.56938,-5.18206 11.56938,-11.57029 0,-6.38822 -5.17939,-11.56937 -11.56938,-11.56937 z"
     id="path4"
     inkscape:connector-curvature="0"
     style="fill:#dbdbdb;stroke-width:0.99999994" />
  <path
     id="path4508"
     d="m 481.53646,204.47003 c -0.002,-0.6794 -0.15352,-1.7047 -0.41734,-2.29587 -0.69442,-2.51823 -2.23765,-4.81764 -4.54765,-6.42352 l -64.66928,-44.95579 v -48.18873 c 0,-6.388219 -5.1794,-11.569389 -11.56763,-11.569389 h -74.39985 l -63.30252,-44.00903 c -3.95647,-2.752935 -9.2091,-2.765288 -13.17792,-0.02294 l -63.71194,44.03021 h -74.07337 c -6.38999,0 -11.5694,5.18205 -11.5694,11.570269 v 47.62314 l -64.983397,44.91167 c -3.196758,2.2103 -4.926167,5.74235 -4.980873,9.35292 -0.0026,0.0688 -0.01764,0.13236 -0.01764,0.20294 l 0.344117,250.79599 c 0.0053,3.06794 1.228233,6.00881 3.399699,8.17587 2.16882,2.16175 5.107049,3.37675 8.170573,3.37675 h 0.01588 L 470.32884,466.456 c 6.38823,-0.008 11.56233,-5.19705 11.5535,-11.58528 l -0.34411,-250.3998 z m -69.63516,-25.49288 36.96875,25.6923 -36.96875,25.70112 z M 256.01191,70.603244 285.40302,91.034971 H 226.45137 Z M 123.23835,114.17374 H 388.76253 V 246.4576 l -89.14924,61.97812 -36.34758,-28.19466 c -0.0564,-0.0442 -0.10588,-0.0706 -0.15882,-0.11118 -4.06323,-3.04763 -9.8091,-3.15881 -14.02497,0.11118 l -36.60963,28.39936 -89.23218,-61.67106 V 114.17551 Z m -23.13879,64.18223 v 52.62342 L 62.02964,204.66769 Z M 53.285539,226.7644 193.28821,323.51862 53.567892,431.89253 53.285539,226.76352 Z M 75.88873,443.86075 256.17514,304.02043 435.81302,443.36398 75.88873,443.85809 Z M 318.77355,323.29628 458.42769,226.20764 458.71003,431.84842 318.77267,323.29628 Z"
     inkscape:connector-curvature="0"
     style="fill:#dbdbdb;stroke-width:0.99999994" />
  <path
     id="path4510"
     d="M 334.32456,214.35038 H 177.67545 c -6.38822,0 -11.56939,5.18116 -11.56939,11.56938 0,6.38822 5.18117,11.56939 11.56939,11.56939 h 156.64911 c 6.38999,0 11.56938,-5.18117 11.56938,-11.56939 0,-6.38822 -5.17939,-11.56938 -11.56938,-11.56938 z m 0,60.16047 H 177.67545 c -6.38822,0 -11.56939,5.18117 -11.56939,11.56938 0,6.38823 5.18117,11.5694 11.56939,11.5694 h 156.64911 c 6.38999,0 11.56938,-5.18206 11.56938,-11.57029 0,-6.38822 -5.17939,-11.56937 -11.56938,-11.56937 z"
     inkscape:connector-curvature="0"
     style="fill:#dbdbdb;stroke-width:0.99999994" />
</svg>
