<svg xmlns="http://www.w3.org/2000/svg" viewBox="0 0 512 512" width="32" height="32"><path d="M486.25 129.833L382.167 25.75C365.563 9.146 343.49 0 320 0c-23.49 0-45.563 9.146-62.167 25.75L47.313 236.271C16.802 266.781 0 307.344 0 350.479 0 439.542 72.458 512 161.521 512c43.135 0 83.698-16.802 114.208-47.313l210.521-210.52C502.854 237.563 512 215.49 512 192s-9.146-45.562-25.75-62.167zm-336.917 304.48c0 3.302-1.531 6.417-4.135 8.438a10.721 10.721 0 0 1-6.531 2.229c-.896 0-1.792-.115-2.677-.344-33.625-8.708-59.917-35-68.625-68.625a10.658 10.658 0 0 1 1.885-9.208 10.685 10.685 0 0 1 8.438-4.135h45.563a10.66 10.66 0 0 1 9.219 5.302 32.044 32.044 0 0 0 11.563 11.563 10.66 10.66 0 0 1 5.302 9.219v45.561zm0-119.063a10.66 10.66 0 0 1-5.302 9.219 32.15 32.15 0 0 0-11.563 11.573 10.697 10.697 0 0 1-9.219 5.292H77.688a10.686 10.686 0 0 1-8.438-4.135 10.652 10.652 0 0 1-1.885-9.208c8.708-33.625 35-59.917 68.625-68.625 3.167-.844 6.573-.146 9.208 1.885a10.685 10.685 0 0 1 4.135 8.438v45.561zm64-144.583c11.76 0 21.333 9.573 21.333 21.333s-9.573 21.333-21.333 21.333C201.573 213.333 192 203.76 192 192s9.573-21.333 21.333-21.333zm39.302 205.343c-8.708 33.625-35 59.917-68.625 68.625-.885.229-1.781.344-2.677.344-2.333 0-4.635-.771-6.531-2.229a10.685 10.685 0 0 1-4.135-8.438V388.75a10.66 10.66 0 0 1 5.302-9.219 32.044 32.044 0 0 0 11.563-11.563 10.66 10.66 0 0 1 9.219-5.302h45.563c3.302 0 6.417 1.531 8.438 4.135a10.66 10.66 0 0 1 1.883 9.209zm-1.885-38.812a10.685 10.685 0 0 1-8.438 4.135H196.75a10.697 10.697 0 0 1-9.219-5.292 32.15 32.15 0 0 0-11.563-11.573 10.66 10.66 0 0 1-5.302-9.219v-45.563c0-3.302 1.531-6.417 4.135-8.438 2.625-2.031 6-2.729 9.208-1.885 33.625 8.708 59.917 35 68.625 68.625.835 3.2.137 6.595-1.884 9.21zm15.917-70.531c-11.76 0-21.333-9.573-21.333-21.333 0-11.76 9.573-21.333 21.333-21.333 11.76 0 21.333 9.573 21.333 21.333 0 11.76-9.573 21.333-21.333 21.333zm0-106.667c-11.76 0-21.333-9.573-21.333-21.333 0-11.76 9.573-21.333 21.333-21.333 11.76 0 21.333 9.573 21.333 21.333 0 11.76-9.573 21.333-21.333 21.333zM320 320c-11.76 0-21.333-9.573-21.333-21.333 0-11.76 9.573-21.333 21.333-21.333s21.333 9.573 21.333 21.333c0 11.76-9.573 21.333-21.333 21.333zm0-106.667c-11.76 0-21.333-9.573-21.333-21.333s9.573-21.333 21.333-21.333 21.333 9.573 21.333 21.333-9.573 21.333-21.333 21.333zm0-106.666c-11.76 0-21.333-9.573-21.333-21.333C298.667 73.573 308.24 64 320 64s21.333 9.573 21.333 21.333c0 11.761-9.573 21.334-21.333 21.334zm53.333 160c-11.76 0-21.333-9.573-21.333-21.333 0-11.76 9.573-21.333 21.333-21.333 11.76 0 21.333 9.573 21.333 21.333.001 11.76-9.572 21.333-21.333 21.333zm53.334-53.334c-11.76 0-21.333-9.573-21.333-21.333s9.573-21.333 21.333-21.333S448 180.24 448 192s-9.573 21.333-21.333 21.333z" fill="gray"/></svg>