<svg xmlns="http://www.w3.org/2000/svg" viewBox="0 0 246.988 228.1" width="32" height="29.553"><path d="M246.037 74.51L206.613 3.846A7.502 7.502 0 0 0 200.063 0H46.93a7.5 7.5 0 0 0-6.55 3.846L.95 74.51a7.502 7.502 0 0 0 .734 8.391l116.002 142.432c.037.046.08.085.118.13.12.141.244.278.375.41.015.015.028.033.043.048.034.033.07.064.104.096l.037.033a7.878 7.878 0 0 0 .61.518c.145.11.295.213.448.313.072.047.143.094.216.139.13.077.263.148.397.219.055.028.108.059.164.086l.152.074c.15.069.303.128.46.188.096.038.191.079.29.113.02.006.035.015.054.021l.021.005c.066.022.137.034.205.054.253.075.51.136.77.184.108.02.215.04.324.055.31.043.622.07.938.074.03 0 .058.007.088.007h.002c.03 0 .06-.007.088-.007.317-.004.63-.031.94-.074.107-.015.213-.035.32-.054.263-.048.522-.11.776-.186.065-.019.133-.031.198-.052.008-.003.016-.003.023-.006.02-.006.036-.015.055-.022.098-.033.191-.074.287-.11.156-.06.312-.12.462-.189.052-.024.104-.05.155-.075.053-.026.104-.056.155-.082.136-.071.271-.143.401-.221.074-.045.146-.093.22-.141a7.035 7.035 0 0 0 .643-.469c.144-.116.281-.237.414-.362.013-.013.027-.023.04-.035.03-.029.062-.056.092-.086.017-.017.032-.036.05-.053.133-.135.26-.276.382-.42.036-.042.076-.079.111-.122l115.99-142.433a7.502 7.502 0 0 0 .733-8.391zM138.3 15.001l21.242 55.664H87.456l21.25-55.664zm21.765 70.664l-36.563 110.967L86.934 85.665zm-88.923 0l32.524 98.699-80.384-98.699zm104.716 0h47.851l-80.37 98.696zm50.857-15h-51.118l-21.242-55.664h41.306zM51.332 15.001H92.65L71.401 70.665H20.273z" fill="gray"/></svg>